<svg xmlns="http://www.w3.org/2000/svg" width="650.174" height="916.163" viewBox="0 0 650.174 916.163">
  <g id="Group_111" data-name="Group 111" transform="translate(0.5 0.5)">
    <path id="Path_38" data-name="Path 38" d="M359.768,655.206h.025a327.191,327.191,0,0,1-3.626-48.473c0-179.258,145.324-324.595,324.6-324.595s324.577,145.336,324.577,324.595a327.982,327.982,0,0,1-3.607,48.473h.012l-.045.24c-.919,6.118-2.024,12.159-3.292,18.161-57.322,306.836-317.644,461.478-317.644,461.478S420.427,980.444,363.094,673.608c-1.244-6-2.361-12.043-3.286-18.161Z" transform="translate(-356.167 -220.004)" fill="#00bf26" stroke="#00bb25" stroke-width="1"/>
    <path id="Path_39" data-name="Path 39" d="M680.764,338.322c-168.52,0-307.01,128.424-323.018,292.742-.937-9.988-1.58-20.057-1.58-30.291,0-179.267,145.324-324.589,324.6-324.589s324.577,145.321,324.577,324.589c0,10.234-.637,20.3-1.567,30.291C987.766,466.747,849.27,338.322,680.764,338.322Z" transform="translate(-356.167 -276.185)" fill="#00bf26" stroke="#00bb25" stroke-width="1"/>
    <circle id="Ellipse_8" data-name="Ellipse 8" cx="164.805" cy="164.805" r="164.805" transform="translate(324.588 619.798) rotate(-135)" fill="#00bf26" stroke="#00bb25" stroke-width="1" style="mix-blend-mode: multiply;isolation: isolate"/>
    <circle id="Ellipse_9" data-name="Ellipse 9" cx="133.009" cy="133.009" r="133.009" transform="translate(324.588 574.832) rotate(-135)" fill="#00bf26" stroke="#00bb25" stroke-width="1"/>
  </g>
</svg>
