<svg xmlns="http://www.w3.org/2000/svg" xmlns:xlink="http://www.w3.org/1999/xlink" width="454" height="454" viewBox="0 0 454 454">
  <defs>
    <radialGradient id="radial-gradient" cx="0.47" cy="0.754" r="0.859" gradientTransform="matrix(-1, 0.001, 0.001, 1, 0.94, 0)" gradientUnits="objectBoundingBox">
      <stop offset="0" stop-color="#00b4ff" stop-opacity="0"/>
      <stop offset="0.194" stop-color="#01b4ff" stop-opacity="0.012"/>
      <stop offset="0.327" stop-color="#07b7ff" stop-opacity="0.047"/>
      <stop offset="0.443" stop-color="#10bcff" stop-opacity="0.106"/>
      <stop offset="0.548" stop-color="#1dc2ff" stop-opacity="0.192"/>
      <stop offset="0.647" stop-color="#2ecaff" stop-opacity="0.302"/>
      <stop offset="0.74" stop-color="#43d4ff" stop-opacity="0.439"/>
      <stop offset="0.829" stop-color="#5ce0ff" stop-opacity="0.6"/>
      <stop offset="0.914" stop-color="#79eeff" stop-opacity="0.784"/>
      <stop offset="0.995" stop-color="#99feff" stop-opacity="0.988"/>
      <stop offset="0.999" stop-color="#9bffff"/>
    </radialGradient>
    <radialGradient id="radial-gradient-2" cx="0.47" cy="0.754" r="0.859" xlink:href="#radial-gradient"/>
    <radialGradient id="radial-gradient-3" cx="0.5" cy="0.552" r="0.526" gradientTransform="matrix(-1, 0.001, 0.001, 1.08, 1, -0.022)" gradientUnits="objectBoundingBox">
      <stop offset="0" stop-color="#00e2ff"/>
      <stop offset="0.201" stop-color="#00d8ff"/>
      <stop offset="0.534" stop-color="#00bfff"/>
      <stop offset="0.736" stop-color="#00adff"/>
      <stop offset="0.804" stop-color="#00b0ff"/>
      <stop offset="0.859" stop-color="#00baff"/>
      <stop offset="0.91" stop-color="#00cbff"/>
      <stop offset="0.958" stop-color="#00e3ff"/>
      <stop offset="1" stop-color="aqua"/>
    </radialGradient>
    <clipPath id="clip-path">
      <circle id="Ellipse_4" data-name="Ellipse 4" cx="191.594" cy="191.594" r="191.594" fill="none"/>
    </clipPath>
    <radialGradient id="radial-gradient-4" cx="0.451" cy="0.562" r="0.637" gradientTransform="matrix(-0.885, -0.09, -0.08, 0.996, 0.898, 0.043)" gradientUnits="objectBoundingBox">
      <stop offset="0" stop-color="#00bddf"/>
      <stop offset="0.308" stop-color="#008be3"/>
      <stop offset="0.722" stop-color="#004cea"/>
      <stop offset="0.776" stop-color="#004fe9"/>
      <stop offset="0.827" stop-color="#005be7"/>
      <stop offset="0.877" stop-color="#006ee4"/>
      <stop offset="0.927" stop-color="#0089e0"/>
      <stop offset="0.975" stop-color="#00abdb"/>
      <stop offset="1" stop-color="#00c0d8"/>
    </radialGradient>
  </defs>
  <g id="Group_113" data-name="Group 113" transform="translate(-7008 2073)">
    <circle id="Ellipse_14" data-name="Ellipse 14" cx="227" cy="227" r="227" transform="translate(7008 -2073)" fill="#1edf46"/>
    <g id="Group_107" data-name="Group 107" transform="translate(7033.729 -2047.271)">
      <circle id="Ellipse_1" data-name="Ellipse 1" cx="201.27" cy="201.27" r="201.27" opacity="0.61" fill="url(#radial-gradient)"/>
      <circle id="Ellipse_2" data-name="Ellipse 2" cx="196.43" cy="196.43" r="196.43" transform="translate(4.841 4.841)" fill="url(#radial-gradient-2)"/>
      <circle id="Ellipse_3" data-name="Ellipse 3" cx="191.594" cy="191.594" r="191.594" transform="translate(9.677 9.677)" fill="url(#radial-gradient-3)"/>
      <g id="Group_23" data-name="Group 23" transform="translate(9.677 9.677)">
        <g id="Group_22" data-name="Group 22" transform="translate(0)" clip-path="url(#clip-path)">
          <path id="Path_27" data-name="Path 27" d="M570.823,361.731l-.711-2.483,0-5.381a12.544,12.544,0,0,0,3.016,0c.532-.239.177-1.713.177-1.713l-2.486-2.127,4.968,1.061,1.775,2.776,5.5,3.428-2.482,1.421-1.6,1.065-2.394.356v-1.6s-2.75-.708-3.459.356l.355,1.952Zm61.476,76.7a5.491,5.491,0,0,1,4.547,0c.381,3.788,3.559,3.786,3.559,3.786l-4.051,2.277-4.054-1.514-5.306-1.765-4.545,3.287c-3.413-4.166,0-6.569,0-6.569ZM546.081,515.76l3.934-.831,6.831-4.353,6,0,5.175-2.694H570.1s-.416-2.9.2-3.107,5.175-2.9,5.175-2.9L579,503.109v-2.485l2.485-1.037h2.07l-.209-2.07s-1.866-3.68-.831-4.325,4.757-8.93,4.757-8.93l5.589-3.11,6,0,5.174-4.973,5.174-4.144,2.9-5.8,3.1-2.072s3.522,2.276,4.35,2.068,6-2.075,6-2.075l4.347-1.245,5.386,2.475,0,5.6,2.069-1.451v-2.071l-1.866-3.519-.83-2.485,1.864-.828,2.486,2.9,6.213,1.854,1.245,2.7,2.9,2.69.83,2.278,4.553-3.731a36.122,36.122,0,0,0,4.765,2.068c.621,0,4.76-3.11,4.76-3.11l2.275-4.349-1.246-5.8-1.04-6,3.933-2.487,5.383,0,4.23-1.246-1.954-3.1-2.281-4.554-2.073-3.312s-.582-1.517-1.244-1.863c-2.638-1.379,0-2.691,0-2.691s5.59-.418,6.419,0,3.108,1.655,3.108,1.655l0,4.763,4.143,1.861,6.42,1.445,4.346-4.35c.621-.622,2.066-7.456,2.066-7.456l-2.693-2.482-1.244-2.07-.21-4.969-2.693-2.276-1.037-2.691-3.108-2.276-2.9-2.69-2.692-.826-3.727.83c-.208-1.449-7.041-.823-7.041-.823l-2.691-.131.206-1.524c-1.243-1.035-5.383,0-5.383,0l-5.612-.457c-1.221.254-2.255,2.739-2.255,2.739l2.486,2.276-1.653,4.971-1.655,2.278.622,2.278-3.934-.619-.21-3.935-.21-4.762.618-5.223-3.732-8.028L630.9,390.64l.2-3.52-1.038-4.969-2.691.925-4.766-5.646-6.213-2.056-3.729-2.53-1.866-3.726-6.834-2.066-6.836-3.517,3.109,3.312.415,2.9-3.728-.825-3.314-1.862-2.9-.826-2.692-.827-.83-1.863h1.864l2.9-1.037c1.863-1.45,4.14-3.109,4.14-3.109a2.277,2.277,0,0,0-.622-1.863l-1.865-1.681s-.83-1.009-.208-1.011,5.176-.993,5.176-.993l4.97,2h2.9l-3.522-3.079-3.934,0-4.349-1.033-5.384,0-3.726,0-4.97-1.032-3.522-1.937-4.348-.439-1.245-4.648,2.9-2.5,4.141-2.156.825-4.887,2.274-4.971h2.071l.209,2.691,3.313,0,.828,1.656,1.243.827,2.071.413,1.863-1.865-2.487-2.69,2.9-2.693,3.52-1.866,3.726,0,2.693.826,3.73,4.346,2.9,2.482-.826,2.278,1.037,3.437-.621,1.325,3.521,1.241,3.935.825,1.656-.415,1.244,1.667-2.275,4.65,2.278,1.551,3.107,0,2.689-3.261.621-1.918-1.865-1.023,1.448-2.5,4.348-.21,5.8-3.6,2.691,0,.62-2.2,1.864-.83-2.694-3.1-3.935-2.276-6.835-2.48-2.485-.827-5.385-1.239-3.729-2.068-3.315-2.9-4.348,0-5.177-1.315-3.313,0-1.452-3.858,6.625,0,2.487,1.905,4.348,0a7.534,7.534,0,0,1,3.311-1.908v-1.449l-2.279-2.069-2.9-2.277a17.223,17.223,0,0,1-2.487-4.346l-6,2.075-4.542-.243-3.119-.167-3.934.21-2.277.83c.622,1.656,3.107.412,3.107.412l7.455.823,3.314,1.862-1.037-2.277,3.521.206,4.143,2.689-2.9,1.451-6.834,0-3.726,1.453-3.107-1.241-3.312,1.244-3.933,1.245,4.763,1.489,4.143,1.95,4.142.9,3.314,1.24-1.448,2.9-8.7-.2-5.381,3.316-4.555,0-.209-1.864-1.036-1.863-2.071-.412,1.655-2.279.621-1.732h-2.484l-2.07,1.527c-1.656,1.243-5.178-1.522-5.178-1.522l-5.177-1.949,6.418-1.91L573.5,312.2c-.622-1.242,6.831-3.11,6.831-3.11l5.8-3.524,1.449-1.451,4.969,0-3.935-1.655-9.732,1.042-4.97-1.032-11.39-2.892-7.663-1.858-5.592-2.067,6.419-1.039s4.556,1.24,5.177,1.24,6.005.41,6.626.41l14.494-.01,4.557,1.033-4.141,1.037,2.486,1.448,4.348,0,2.485.827-3.314-2.484,3.52-.83,4.348,1.032,5.386,3.1-2.484.83-3.521-1.447-2.9.623,3.107.826L597.1,303.9l-2.07.622,5.591.411,9.731-1.662,3.937,4.759,7.872,5.586-2.069,1.658,1.45.87,1.864.991,5.383-1,7.456,1.948,13.668,3.38,45.581,43.87,18.236,23.8,10.6,63.356-18.639-6.2-2.9,3.108-4.969.832-3.312,2.072-3.521-1.447-2.9,2.9-6.418,3.524-6.211.832L673.6,464.33s-4.346,3.937-4.139,4.765-1.447,4.557-2.275,4.557-6,2.7-6,2.7l-3.52.416-1.452-3.105-3.107,0,0,3.107-1.241,1.657-.412,4.763-1.24,3.521,2.071,2.277,3.316,4.162,4.145,5.772-.411,5.591,1.037,3.726-3.105,1.037L659.965,513a45.4,45.4,0,0,0-1.446,4.764,42.5,42.5,0,0,1-2.275,5.178l-2.9,2.487-1.24,4.142-7.031,14.5-4.967,4.144-7.245,3.732s-4.552,4.972-4.759,5.594-2.478,9.733-2.478,9.733l.21,5.177-1.446,5.385-.41,6.005-.617,8.282-2.066,6.627-1.859,8.7,2.279,2.9-1.446,4.295-1.653,6.268-2.9,3.108.21,4.969-.619,4.97-12.829,13.673L600,650.319l0-6.419-4.087-2.394,0-3.815,4.085-1.867,0-2.9-2.044-1.862-2.046-3.312v-2.692c-1.713-.62,0-2.485,0-2.485h2.843l.2-2.692h-2.691l-1.119,1.657-2.195-1.655,1.655-3.314c-.415-1.035-3.313,0-3.313,0l-4.971-2.9-2.072-2.484,0-3.313,2.484-2.073,2.068-3.314-2.485,0s-3.725,1.866-4.969,0-3.109-4.347-3.109-4.347l-2.281-5.381s-4.353-7.866-4.768-8.487,0-8.283,0-8.283l-6.837-5.586-4.555,0-3.731-6.209-2.9-4.086,0-6.888-1.039-6.625,1.653-6.619-5.8-7.666-4.351-4.138,1.652-7.663ZM499.842,353.084l-1.411.825-1.884-1.646h-2.59l-2.472-.822-1.12-1.53.529-2.119-1.06-1.118c-.119-1.706,2.587-2.944,2.587-2.944h1.53l1.884,2.176h2l.708,2.471-.351,1.913,1.647,1.029Zm-12.484-15.645,2.118.94,0,3.178-.234.824a8.861,8.861,0,0,0-.234,2l-1.53,1.06-1.53.942-.7,1.413s.235,1.412,1.06,1.412l1.883.587-.706,1.3s1.413.705,1.531,1.294l-1.293.942L488.9,354.5l2.589,0v1.413l-5.414,0-2.237-1.411-3.295.59s-2.707-.587-3.3-.587l.471-.589-.824-1.059-1.3-1.529,1.647-.708,1.883-.589-.237-2,1.764-1.355,2.706-1.472.233-2.707-.237-2.354,2.825,0,.588-1.176-1.649-1.53ZM471.946,347.57v-.883h-1.883l-1.06-.764,0-2.942-1.413-.705.47-2.354,2.235-.825,3.3,1.058v1.765l2,.234.472,1.588-1.412.649,2.237,1.293.589,1-1.882,1.708ZM353.383,419l-7.785,4.233-4.006-1.555-2.668,3.784-7.12,1.562-3.114,1.56L320,405.666l2.44-12.239,38.9-63.661,11.566-8.684,14.017-.009,6.231.885,1.559,3.114,3.338-1.114,1.555-2.894h3.115l-1.334,1.335-1.111,2.227,4.894,0,0,2.892,3.506-.508,2.06-.345,1.2.6-1.115.687-1.545.345,1.459.514,1.8-.687,2.317-.774.686-1.546,1.716-1.375,1.974-.259,1.4-1.631-3.03.259-2.66,1.2-2.232.258s-1.373-.343-1.546-.085a17.051,17.051,0,0,1-3.261.688l-1.8-1.372,3-2.428,5.407-1.611s9.1-1.25,9.527-1.229a37,37,0,0,0,3.861-1.183l3.176-.774,6.953,0,10.559,1.946,5.838,3.709,6.957,6.261s6.009.854,6.352.94a29.1,29.1,0,0,1,2.835,2.66l-1.371,3,.344,1.459-.944.773-.685,1.373-.943,1.46-3.52-.513-3.779-2.144-2.917,1.547-2.23,3.865-.427,2.318-2.661.517-1.8-1.544-1.889-.428-1.032-3.089-.172-2.4-2.577-.772v-1.63l.943-.687,1.2-.773.428-2.834-3.928-2.487s-2.084-1.887-2.084-2.231-1.031-1.458-1.031-1.458-1.63.087-2.145.172-3.262,1.033-3.262,1.033l-1.03.773,3.177,1.543,1.869,1.887,1.395.944-1.286,3-3.347,1.718-3-.6-4.758-.245s-5.456,1.11-5.713,1.281,1.577.772,1.577.772l2.114.6,1.2.772,1.974-1.032a5.184,5.184,0,0,1,2.833-.945,5.786,5.786,0,0,1,2.318,1.029l-1.286,1.975-1.8,1.2s.774,2.232,1.289,2.145,1.459-1.631,1.459-1.631l1.973-.774,1.289.772-.171,1.888.431,2.661,2.146,1.371,1.546,1.2,2.06-1.2,2.661.771,4.635-.26,1.031.944,1.63-.688s4.035.169,4.292.255a15.412,15.412,0,0,0,2.66-1.2l1.029-2.318-1.289-1.545.6-.687.515-1.288-.86-1.03,1.288-.344,2.147,2.144.087,2.061s-1.114,1.975-1.2,2.232a14.63,14.63,0,0,0-.085,1.8l2.146.857,2.318.685-.428.859-2.4.43.773,1.373,1.373.085.688,1.717.429.943,1.888-.516-.087-1.2-.087-1.546.772-.773,1.117,1.2,1.2,1.545,2.747.513,1.288,1.03.86,1.887,2.061.943,1.631,1.03,2.489-1.29.344.6-.514,1.289.6.686,3.262-.26,1.8-.258.259,2.4-3.176.517-1.544,1.373s-1.2,1.46-1.459,1.46-1.974.43-1.974.43l.689,3.777,1.547,3.519,6.438-.09,7.038-.176,2.233.856.687,1.974-.6,2.061,1.29,4.034.516,2.06a9.454,9.454,0,0,1-.17,2.06c-.171.258-1.2,2.062-1.2,2.062l.774,2.917-2.318.688-3.862.26-2.059,1.118-1.546.258-2.576-1.114-3.862-.513-3.608-3,.6-3.692-2.233-2.83-4.723-3-2.061-.685.256-3.091-2.833-1.629-2.833.946-1.888-1.03L457.8,372.3l-5.747,5.326-7.894,5.412s-1.628,3.263-1.715,3.52a10.841,10.841,0,0,0,1.2,2.232l4.464,0,1.631.343s-.515,1.288-.857,1.288-3.862,1.634-3.862,1.634l-1.115.859-.6-.171.085-1.63-.345-1.545-1.2.172a11.135,11.135,0,0,1-1.289-1.716,24.158,24.158,0,0,0-1.2-2.231l.943-1.8-.515-1.2-1.459.172-.171,1.8h-.515l.17-2.232,1.373-.859,1.973-1.2,1.287-1.889,2.231-.6,2.575-1.8.6-2.06,2.4-1.2.6-1.889-.688-1.974-1.545-.256-.085,1.888-1.545.516-1.031-.6-1.544,2.748-3.175,1.8-2.488,1.46-1.545.172-2.573,2.835-.6,3.605-4.8,4.982-.685,3.52-3.432,2.405-.944-.772.514-2.233-1.889-1.029.6-1.545,1.887-.774.772-1.546-.345-2.489,1.115-1.288-1.031.172-.772.944-1.2-1.63-2.061.088-2.06.86-1.544,2.061-1.544,2.4s1.031.6,1.117.857a7.727,7.727,0,0,1-.858,1.889l-1.973,1.8-1.544,2.232-3.091-.083-.341,1.373-2.232.259-2.146-.514-.6-1.372L404,395.078l-2.489.86-2.146-.17-1.8-1.973-1.63.687-1.2.773.43,1.717-1.067,3.532,1.56,3.559,0,4.673,9.345-.006,3.56,1.333,5.784-2.9,3.782.443,6.452-2.34,5.117,0,1.559,1.445-.889,2.448,2,2,5.116-3.118,4,.443,1.556-2.671,6.007-1.784,4.226-2.005,3.114-1.559-3.785-4.448,1.11-3.784,2.669-1.559,15.8,1.771,6.231,2.444,4.006.219,4.228,1.555,5.117-1.117,3.34,4,4.007,2.668,3.615,7.563-.939,3.338,4.676,4.448,4.674,1.777,2.228,4.226s4.9,10.9,5.347,11.789,0,6.453,0,6.453l-2,6.454,4.679,10.9-1.777,5.341-2.444,4.9-6.448,9.127.189,4.58-13.3,10.132-8.913-3.573-8.676,2.675-10.683-5.779s-3.56,0-4.672,2.006-1.778,3.783-5.783,3.786-6,4.453-6,4.453l1.782,5.117-.888,2.67,1.783,4.227-4.223,8.68-3.111,6.678-2.888,6.454-.663,8.233.67,4.672,5.123,8.9-1.549,13.8-1.778,3.116.669,2.224-3.113,3.339-2,7.789,1.784,7.341-2.667,5.564s-2.444,6.01-2.666,6.677-1.778,2.895-1.555,4.007.893,4,.893,4l-.887,4.45-11.347.008-5.342-1.777-13.136-13.343a45.889,45.889,0,0,1-3.34-4.448c-.224-.667-2.008-8.9-2.008-8.9l-9.348-3.777,0-7.342,2-5.787-4.9-4.67-13.133-7.557-1.117-5.785-.005-10.012,2.443-7.567-.67-4.672,2.446-2-4.232-6.228-1.563-8.231-6.232-3.779-1.337-3.782L355.432,493.33l-3.567-11.193-3.342-6.177,0-6.676,3.115-1.114,3.562,2.89,4.9.442,5.119,1.332,4.225-2.673-.446-3.337,5.336-6.011,5.338-3.118,2.443-8.013,5.115-4.9.441-6.23,3.779-5.565,4.666-10.461,4.892-4.9.443-4.006-2,.892-2.224,1.781-.887,3.338c-1.78,0-2.45-3.336-2.45-3.336l-1.555,3.338-1.554,4.229-4.891,7.346-2.67.446-3.111,6.454.224,2.892-8.895,9.128-1.552,8.457-1.555,3.783-2.89,2.895-13.352-3.552-2.449-2.223-5.786-1.777,0-2.67L337.16,450.6l-2.84-5.163-1.614-2.623-2.228-3.113,3.78-5.12,5.141-4.357,1.639-4.094,1.894.435,1.337,4,5.118,1.332,2.67-1.781.887-3.783,1.78.443,2.667-4.9,2.447-1.336,3.112-5.12-2.227-2.446Zm104.109-32.814-.471-2.118V381a3.4,3.4,0,0,1,1.705-.825,1.862,1.862,0,0,1,1.236.47l0,3.414a6.3,6.3,0,0,0,0,2.119Zm0-9.179a1.451,1.451,0,0,1,1.646-1.532l.825,2.354-.822,1.765H457.49Zm60.672-60.793-8.337.005-4.552-6.544-10.46.006-1.669-4.167L486.7,302.1c-3.034-2.651-.005-7.452-.005-7.452L499.806,293l13.035,1.635,18.945-3.549,11.676,5.3s8.415,4.542,9.551,4.162,6.821.018,6.821.018-4.165,3.77-6.06,4.15a13.6,13.6,0,0,1-4.168,0s-.008,3.692-.756,4.548c-2.651,3.033,2.808,5.3,2.808,5.3l0,3.573s-.593,6.769-1.713,6.46-2.98,3.612-2.98,3.612l-3.483,3.792-6.367,0-7.963-9.468-7.839-3.4ZM354.611,542.9l1.027-2.793,1.177,1.175,1.031,2.351L360.2,545.1l1.03,3.085,1.472,3.673,5.732,1.76,2.5,4.26.592,7.053,2.059,3.378,2.353,2.5-.879,4.115-1.615,1.911,1.617,2.2-1.615,1.324-5.437,0-3.088-4.554s-2.5-5.288-2.5-5.729-1.179-5.289-1.179-5.289l-4.265-5.582,0-7.493-2.94,0,.879-5.438ZM651.241,430l6.441-2.194s1.782.254,3.883.745A24.83,24.83,0,0,1,666.073,430l-9.145,3.119-3.69,0-6.16,5.31-4.169,0s-3.412-1.514-2.277-4.167l5.3-1.9Z" transform="translate(-328.617 -275.064)" fill="url(#radial-gradient-4)"/>
        </g>
      </g>
    </g>
  </g>
</svg>
