<svg id="Group_112" data-name="Group 112" xmlns="http://www.w3.org/2000/svg" xmlns:xlink="http://www.w3.org/1999/xlink" width="258.187" height="258.186" viewBox="0 0 258.187 258.186">
  <defs>
    <clipPath id="clip-path">
      <circle id="Ellipse_4" data-name="Ellipse 4" cx="122.887" cy="122.887" r="122.887" fill="none"/>
    </clipPath>
  </defs>
  <circle id="Ellipse_1" data-name="Ellipse 1" cx="129.093" cy="129.093" r="129.093" fill="none" opacity="0.61"/>
  <circle id="Ellipse_2" data-name="Ellipse 2" cx="125.988" cy="125.988" r="125.988" transform="translate(3.105 3.105)" fill="none"/>
  <circle id="Ellipse_3" data-name="Ellipse 3" cx="122.887" cy="122.887" r="122.887" transform="translate(6.207 6.207)" fill="none"/>
  <g id="Group_23" data-name="Group 23" transform="translate(6.207 6.207)">
    <g id="Group_22" data-name="Group 22" transform="translate(0)" clip-path="url(#clip-path)">
      <path id="Path_27" data-name="Path 27" d="M480.876,336.4l-.456-1.593,0-3.452a8.044,8.044,0,0,0,1.934,0c.341-.153.113-1.1.113-1.1l-1.594-1.364,3.187.68,1.138,1.78,3.528,2.2-1.592.911-1.024.683-1.535.229v-1.024s-1.764-.454-2.218.229l.228,1.252Zm39.43,49.2a3.522,3.522,0,0,1,2.917,0,2.409,2.409,0,0,0,2.283,2.429l-2.6,1.46-2.6-.971-3.4-1.132-2.915,2.109c-2.189-2.672,0-4.213,0-4.213Zm-55.3,49.6,2.523-.533,4.381-2.792,3.851,0,3.319-1.728h1.329s-.267-1.859.131-1.993,3.319-1.861,3.319-1.861l2.258.8v-1.594l1.594-.665h1.328l-.134-1.328s-1.2-2.361-.533-2.774,3.051-5.728,3.051-5.728l3.585-1.995,3.851,0,3.318-3.19,3.318-2.658,1.857-3.72,1.991-1.329s2.259,1.46,2.79,1.327,3.85-1.331,3.85-1.331l2.788-.8,3.454,1.587,0,3.59,1.327-.93v-1.329l-1.2-2.257-.532-1.594,1.2-.531,1.594,1.858,3.985,1.189.8,1.73,1.86,1.725.532,1.461,2.92-2.393a23.167,23.167,0,0,0,3.056,1.327,20.354,20.354,0,0,0,3.053-1.995l1.459-2.79-.8-3.718-.667-3.851,2.523-1.6,3.453,0,2.713-.8-1.253-1.991-1.463-2.921-1.329-2.124s-.373-.973-.8-1.195c-1.692-.884,0-1.726,0-1.726a21.135,21.135,0,0,1,4.117,0c.531.265,1.993,1.061,1.993,1.061v3.055l2.657,1.193,4.118.927,2.788-2.79c.4-.4,1.325-4.782,1.325-4.782l-1.727-1.592-.8-1.328L559,374.571l-1.727-1.46-.665-1.726-1.993-1.46-1.86-1.725-1.727-.53-2.391.532c-.133-.93-4.516-.528-4.516-.528l-1.726-.084.132-.978c-.8-.664-3.453,0-3.453,0l-3.6-.293c-.783.163-1.447,1.757-1.447,1.757l1.594,1.46-1.06,3.189-1.062,1.461.4,1.461-2.523-.4-.134-2.524-.135-3.054.4-3.35-2.393-5.149-9.7-6.236.131-2.258-.666-3.187-1.726.593-3.057-3.621-3.985-1.319-2.391-1.622-1.2-2.39-4.383-1.325-4.385-2.255,1.994,2.124.267,1.859-2.391-.529-2.126-1.194-1.859-.53-1.727-.531-.532-1.195h1.2l1.859-.665c1.195-.93,2.655-1.994,2.655-1.994a1.461,1.461,0,0,0-.4-1.195l-1.2-1.078s-.532-.647-.133-.648,3.32-.637,3.32-.637l3.188,1.281h1.859l-2.259-1.975h-2.523l-2.79-.663-3.453,0h-2.39l-3.188-.662-2.259-1.242-2.789-.282-.8-2.981,1.858-1.6,2.656-1.383.529-3.134,1.458-3.189H489.1l.134,1.726h2.125l.531,1.062.8.531,1.329.265,1.195-1.2-1.595-1.725,1.858-1.727,2.258-1.2h2.39l1.727.53,2.392,2.788,1.86,1.592-.53,1.461.665,2.2-.4.85,2.258.8,2.524.529,1.062-.266.8,1.069-1.459,2.983,1.461.995h1.992l1.725-2.091.4-1.23-1.2-.656.929-1.6,2.789-.135,3.717-2.307h1.726l.4-1.414,1.2-.532-1.728-1.99-2.524-1.46-4.384-1.591-1.594-.531-3.454-.794-2.391-1.327-2.126-1.858H505.17l-3.32-.843h-2.125l-.931-2.475,4.249,0,1.6,1.222,2.789,0a4.833,4.833,0,0,1,2.124-1.224v-.93l-1.462-1.327-1.861-1.46a11.047,11.047,0,0,1-1.6-2.788l-3.851,1.331-2.913-.156-2-.107-2.523.135-1.46.532c.4,1.062,1.992.264,1.992.264l4.782.528,2.126,1.194-.665-1.46,2.258.132,2.657,1.725-1.859.93-4.383,0-2.39.932-1.992-.8-2.124.8-2.523.8,3.055.955,2.657,1.251,2.656.578,2.126.8-.929,1.86-5.578-.129-3.452,2.127h-2.921l-.134-1.2-.665-1.195L485.25,311l1.061-1.462.4-1.111h-1.594l-1.328.979c-1.062.8-3.321-.976-3.321-.976l-3.32-1.25,4.116-1.225,1.327-1.329c-.4-.8,4.381-1.995,4.381-1.995l3.717-2.26.93-.93h3.187l-2.524-1.061-6.242.668-3.188-.662-7.305-1.855-4.915-1.192-3.587-1.326,4.117-.667s2.922.8,3.32.8,3.852.263,4.25.263l9.3-.006,2.923.663-2.656.665,1.594.929,2.789,0,1.594.531-2.126-1.593,2.257-.532,2.789.662,3.454,1.99-1.593.532-2.258-.928-1.859.4,1.992.53.8,1.062-1.328.4,3.586.264,6.241-1.066,2.525,3.053,5.049,3.583-1.327,1.064.93.558,1.2.636,3.453-.639,4.782,1.25,8.767,2.168,29.236,28.138,11.7,15.266,6.8,40.636-11.955-3.978-1.858,1.993-3.187.534-2.124,1.329-2.258-.928-1.858,1.861-4.116,2.26-3.984.533L546.8,402.2s-2.788,2.525-2.654,3.056-.928,2.923-1.459,2.923a27.192,27.192,0,0,0-3.85,1.729l-2.258.267-.931-1.992h-1.993v1.993l-.8,1.063-.264,3.055-.8,2.258,1.328,1.46,2.127,2.669,2.659,3.7-.264,3.586.665,2.39-1.992.665,1.728,2.389a29.118,29.118,0,0,0-.928,3.055,27.257,27.257,0,0,1-1.459,3.321l-1.859,1.6-.8,2.656-4.51,9.3L525.315,456l-4.647,2.393a46.957,46.957,0,0,0-3.053,3.588c-.133.4-1.59,6.243-1.59,6.243l.135,3.32L515.233,475l-.263,3.852-.4,5.312-1.325,4.251L512.057,494l1.462,1.859-.928,2.755-1.06,4.02-1.858,1.993.135,3.187-.4,3.188-8.228,8.77-1.593,1.727,0-4.117-2.621-1.535V513.4l2.62-1.2v-1.859l-1.311-1.194-1.312-2.124v-1.727c-1.1-.4,0-1.594,0-1.594h1.824l.131-1.727h-1.726l-.717,1.063-1.408-1.062,1.062-2.126c-.266-.664-2.125,0-2.125,0l-3.189-1.857-1.329-1.593v-2.125l1.593-1.329,1.327-2.126h-1.594s-2.389,1.2-3.187,0-1.994-2.788-1.994-2.788l-1.463-3.452s-2.792-5.045-3.058-5.443,0-5.313,0-5.313l-4.385-3.583h-2.922l-2.393-3.982-1.861-2.621,0-4.418-.667-4.249,1.06-4.245-3.721-4.917-2.791-2.654,1.059-4.915ZM435.349,330.851l-.9.529-1.208-1.056h-1.661l-1.585-.527-.718-.981.339-1.359-.68-.717c-.076-1.094,1.659-1.888,1.659-1.888h.981l1.208,1.4h1.283l.454,1.585-.225,1.227,1.057.66Zm-8.007-10.035,1.359.6v2.038l-.15.529a5.684,5.684,0,0,0-.15,1.283l-.981.68-.981.6-.452.906s.151.906.68.906l1.208.376-.452.831s.906.452.982.83l-.829.6.755.755h1.66v.906l-3.472,0-1.435-.9-2.113.378s-1.736-.376-2.114-.376l.3-.378-.529-.679-.831-.98,1.057-.454,1.208-.378-.152-1.283,1.132-.869,1.736-.944.15-1.736-.152-1.51h1.812l.377-.755-1.057-.981Zm-9.885,6.5v-.566h-1.208l-.68-.49v-1.887l-.906-.452.3-1.51,1.434-.529,2.114.678v1.132l1.283.15.3,1.018-.906.416,1.435.829.378.641-1.207,1.1Zm-76.045,45.811-4.993,2.715-2.569-1-1.711,2.427-4.567,1-2,1L320,364.576l1.565-7.85,24.95-40.832,7.418-5.57,8.99-.005,4,.568,1,2,2.141-.715,1-1.856h2l-.856.856-.713,1.428,3.139,0v1.855l2.249-.326,1.321-.221.771.384-.715.441-.991.221.936.33,1.156-.441,1.486-.5.44-.991,1.1-.882,1.266-.166.9-1.046-1.944.166-1.706.772-1.432.165s-.881-.22-.991-.054a10.937,10.937,0,0,1-2.091.441l-1.157-.88,1.926-1.557,3.468-1.033s5.835-.8,6.111-.788a23.733,23.733,0,0,0,2.477-.759l2.037-.5,4.459,0,6.773,1.248,3.745,2.379,4.462,4.016s3.854.548,4.074.6a18.666,18.666,0,0,1,1.818,1.706l-.88,1.927.22.936-.606.5-.439.881-.6.937-2.258-.329-2.424-1.375-1.871.992-1.43,2.479-.274,1.486-1.707.332-1.156-.99-1.212-.275-.662-1.982-.111-1.541-1.653-.5v-1.046l.6-.441.77-.5.275-1.817-2.519-1.6s-1.337-1.21-1.337-1.431-.661-.935-.661-.935-1.046.056-1.376.111-2.092.663-2.092.663l-.66.5,2.038.989,1.2,1.21.895.606-.825,1.927-2.147,1.1-1.927-.384-3.052-.157s-3.5.712-3.664.822,1.011.5,1.011.5l1.356.384.771.5,1.266-.662a3.325,3.325,0,0,1,1.817-.606,3.711,3.711,0,0,1,1.487.66l-.825,1.267-1.156.771s.5,1.432.827,1.376.936-1.046.936-1.046l1.265-.5.827.5-.11,1.211.277,1.707,1.377.88.991.77,1.321-.772,1.707.494,2.973-.167.661.606,1.046-.441s2.588.108,2.753.163a9.884,9.884,0,0,0,1.706-.772l.66-1.487-.827-.991.385-.441.33-.826-.551-.661.826-.22,1.377,1.375.056,1.322s-.715,1.267-.77,1.432a9.37,9.37,0,0,0-.054,1.156l1.377.55,1.486.439-.275.551-1.541.276.5.881.881.054.441,1.1.275.6,1.211-.331-.056-.77-.056-.991.5-.5.716.77.772.991,1.762.329.826.66.551,1.21,1.322.6,1.046.66,1.6-.827.22.385-.33.827.385.44,2.092-.167,1.156-.165.166,1.541-2.037.332-.99.881s-.77.937-.936.937-1.266.276-1.266.276l.442,2.422.992,2.257,4.129-.058,4.514-.113,1.432.549.441,1.266-.384,1.322.827,2.587.331,1.321a6.065,6.065,0,0,1-.109,1.321c-.11.165-.77,1.322-.77,1.322l.5,1.871-1.487.441-2.477.167-1.32.717-.991.165-1.652-.715-2.477-.329-2.314-1.925.384-2.368-1.432-1.815-3.029-1.925-1.322-.439.164-1.982-1.817-1.045-1.817.607-1.211-.66-3.69-1.1L404.7,346.59l-5.063,3.471s-1.044,2.093-1.1,2.258a6.954,6.954,0,0,0,.772,1.432l2.863,0,1.046.22s-.33.826-.55.826-2.477,1.048-2.477,1.048l-.715.551-.385-.11.054-1.046-.221-.991-.77.111a7.142,7.142,0,0,1-.827-1.1,15.5,15.5,0,0,0-.772-1.431l.6-1.157-.33-.77-.936.111-.11,1.156h-.33l.109-1.432.881-.551,1.265-.772.825-1.212,1.431-.386,1.651-1.158.384-1.321,1.541-.772.385-1.212-.441-1.266-.991-.164-.054,1.211-.991.331-.661-.385-.99,1.763L397.761,345l-1.6.937-.991.111-1.651,1.818-.384,2.313-3.081,3.2-.439,2.258-2.2,1.543-.606-.5.33-1.432-1.212-.66.385-.991,1.211-.5.5-.991-.221-1.6.715-.826-.661.111-.5.606-.771-1.046-1.322.056-1.321.551-.99,1.322-.99,1.542s.661.385.716.55a4.955,4.955,0,0,1-.55,1.212l-1.265,1.157-.99,1.432-1.982-.054-.219.881-1.432.166-1.377-.33-.386-.88-.6.826-1.6.551-1.377-.109-1.157-1.265-1.046.441-.77.5.276,1.1-.685,2.265,1,2.283,0,3,5.994,0,2.284.855,3.71-1.857,2.426.284,4.138-1.5,3.282,0,1,.927-.57,1.57,1.285,1.283,3.281-2,2.569.284,1-1.713,3.853-1.145,2.711-1.286,2-1-2.428-2.853.712-2.427,1.712-1L417.61,356.1l4,1.568,2.569.141,2.712,1,3.282-.716,2.142,2.568,2.57,1.711,2.319,4.851-.6,2.141,3,2.853,3,1.14,1.429,2.711s3.144,6.991,3.43,7.562,0,4.139,0,4.139l-1.282,4.139,3,6.991-1.14,3.425-1.567,3.141-4.135,5.854.121,2.937-8.529,6.5-5.717-2.292-5.565,1.716-6.852-3.706s-2.284,0-3,1.287-1.14,2.426-3.709,2.429-3.851,2.856-3.851,2.856l1.143,3.282-.57,1.712,1.144,2.711-2.709,5.567-2,4.283-1.852,4.139-.425,5.281.43,3,3.286,5.707-.994,8.849-1.14,2,.429,1.427-2,2.142-1.282,5,1.145,4.709-1.71,3.569s-1.568,3.855-1.71,4.282-1.14,1.857-1,2.57.573,2.569.573,2.569l-.569,2.854-7.278,0-3.426-1.14-8.425-8.558a29.445,29.445,0,0,1-2.142-2.853c-.144-.428-1.288-5.708-1.288-5.708l-6-2.422,0-4.709,1.282-3.712-3.141-2.995-8.423-4.847-.716-3.71,0-6.422,1.567-4.854-.43-3,1.569-1.285-2.714-3.995-1-5.279-4-2.424-.858-2.426-7.283-7.547-2.288-7.179-2.144-3.962,0-4.282,2-.715,2.284,1.854,3.14.284,3.283.854,2.71-1.714-.286-2.14,3.423-3.855,3.423-2,1.567-5.139,3.281-3.141.283-4,2.424-3.57,2.993-6.71,3.138-3.141.284-2.569-1.284.572-1.427,1.143-.569,2.141c-1.142,0-1.572-2.139-1.572-2.139l-1,2.141-1,2.713-3.137,4.711-1.712.286-2,4.14.143,1.855-5.7,5.855-1,5.424-1,2.426-1.854,1.857-8.564-2.278L339,399.1l-3.711-1.14v-1.712l-4.283-2.851-1.822-3.311-1.035-1.682-1.429-2,2.424-3.284,3.3-2.794,1.051-2.626,1.215.279.858,2.569,3.283.854,1.712-1.143.569-2.426,1.142.284,1.71-3.14,1.57-.857,2-3.284-1.428-1.569Zm66.775-21.046-.3-1.359v-1.962a2.179,2.179,0,0,1,1.094-.529,1.194,1.194,0,0,1,.793.3v2.19a4.038,4.038,0,0,0,0,1.359Zm0-5.888a.93.93,0,0,1,1.056-.983l.529,1.51-.527,1.132h-1.057ZM447.1,307.2l-5.347,0-2.919-4.2-6.709,0-1.07-2.673-4.133-2.185c-1.946-1.7,0-4.779,0-4.779l8.41-1.059,8.361,1.048,12.152-2.276,7.489,3.4s5.4,2.913,6.126,2.669a25.685,25.685,0,0,1,4.375.012s-2.672,2.418-3.887,2.662a8.719,8.719,0,0,1-2.674,0s0,2.368-.485,2.917c-1.7,1.945,1.8,3.4,1.8,3.4v2.292s-.38,4.341-1.1,4.144-1.912,2.317-1.912,2.317l-2.234,2.432-4.084,0-5.108-6.073-5.028-2.18ZM342.2,452.6l.658-1.791.755.754.661,1.508,1.508.941.66,1.979.944,2.356,3.677,1.129,1.6,2.732.38,4.524,1.32,2.167,1.509,1.6-.564,2.639-1.036,1.226,1.037,1.413-1.036.849-3.487,0-1.981-2.921s-1.6-3.392-1.6-3.675-.756-3.392-.756-3.392l-2.735-3.58,0-4.806h-1.885l.564-3.488Zm190.256-72.413,4.131-1.408s1.143.163,2.49.478a15.932,15.932,0,0,1,2.891.924l-5.866,2h-2.367l-3.951,3.406h-2.674s-2.188-.971-1.46-2.673l3.4-1.217Z" transform="translate(-325.527 -280.81)" fill="none"/>
    </g>
  </g>
</svg>
