<svg xmlns="http://www.w3.org/2000/svg" xmlns:xlink="http://www.w3.org/1999/xlink" width="452.507" height="450.925" viewBox="0 0 452.507 450.925">
  <defs>
    <radialGradient id="radial-gradient" cx="0.47" cy="0.754" r="0.859" gradientTransform="matrix(-1, 0.001, 0.001, 1, 0.94, 0)" gradientUnits="objectBoundingBox">
      <stop offset="0" stop-color="#00b4ff" stop-opacity="0"/>
      <stop offset="0.194" stop-color="#01b4ff" stop-opacity="0.012"/>
      <stop offset="0.327" stop-color="#07b7ff" stop-opacity="0.047"/>
      <stop offset="0.443" stop-color="#10bcff" stop-opacity="0.106"/>
      <stop offset="0.548" stop-color="#1dc2ff" stop-opacity="0.192"/>
      <stop offset="0.647" stop-color="#2ecaff" stop-opacity="0.302"/>
      <stop offset="0.74" stop-color="#43d4ff" stop-opacity="0.439"/>
      <stop offset="0.829" stop-color="#5ce0ff" stop-opacity="0.6"/>
      <stop offset="0.914" stop-color="#79eeff" stop-opacity="0.784"/>
      <stop offset="0.995" stop-color="#99feff" stop-opacity="0.988"/>
      <stop offset="0.999" stop-color="#9bffff"/>
    </radialGradient>
    <radialGradient id="radial-gradient-2" cx="0.47" cy="0.754" r="0.859" xlink:href="#radial-gradient"/>
    <radialGradient id="radial-gradient-3" cx="0.5" cy="0.552" r="0.526" gradientTransform="matrix(-1, 0.001, 0.001, 1.08, 1, -0.022)" gradientUnits="objectBoundingBox">
      <stop offset="0" stop-color="#00e2ff"/>
      <stop offset="0.201" stop-color="#00d8ff"/>
      <stop offset="0.534" stop-color="#00bfff"/>
      <stop offset="0.736" stop-color="#00adff"/>
      <stop offset="0.804" stop-color="#00b0ff"/>
      <stop offset="0.859" stop-color="#00baff"/>
      <stop offset="0.91" stop-color="#00cbff"/>
      <stop offset="0.958" stop-color="#00e3ff"/>
      <stop offset="1" stop-color="aqua"/>
    </radialGradient>
    <clipPath id="clip-path">
      <circle id="Ellipse_4" data-name="Ellipse 4" cx="193.805" cy="193.805" r="193.805" fill="none"/>
    </clipPath>
    <radialGradient id="radial-gradient-4" cx="0.451" cy="0.562" r="0.637" gradientTransform="matrix(-0.885, -0.09, -0.08, 0.996, 0.898, 0.043)" gradientUnits="objectBoundingBox">
      <stop offset="0" stop-color="#00bddf"/>
      <stop offset="0.308" stop-color="#008be3"/>
      <stop offset="0.722" stop-color="#004cea"/>
      <stop offset="0.776" stop-color="#004fe9"/>
      <stop offset="0.827" stop-color="#005be7"/>
      <stop offset="0.877" stop-color="#006ee4"/>
      <stop offset="0.927" stop-color="#0089e0"/>
      <stop offset="0.975" stop-color="#00abdb"/>
      <stop offset="1" stop-color="#00c0d8"/>
    </radialGradient>
    <radialGradient id="radial-gradient-5" cx="0.184" cy="-0.151" r="1.516" gradientTransform="matrix(1.067, 0.091, -0.073, 0.753, 302.61, 13.201)" gradientUnits="objectBoundingBox">
      <stop offset="0" stop-color="#fff"/>
      <stop offset="0.536" stop-color="#fff"/>
      <stop offset="0.565" stop-color="#f7fcff"/>
      <stop offset="0.76" stop-color="#cbe9ff"/>
      <stop offset="0.912" stop-color="#b0deff"/>
      <stop offset="1" stop-color="#a6daff"/>
    </radialGradient>
    <radialGradient id="radial-gradient-6" cx="0.465" cy="-0.291" r="1.828" gradientTransform="matrix(0.578, 0.825, -0.408, 0.273, 67.99, 34.902)" xlink:href="#radial-gradient-5"/>
    <radialGradient id="radial-gradient-7" cx="1.269" cy="0.429" r="1.728" gradientTransform="matrix(0.252, 0.993, 0.993, -0.059, 0.815, -0.851)" xlink:href="#radial-gradient-5"/>
    <radialGradient id="radial-gradient-8" cx="0.515" cy="0.331" r="2.323" gradientTransform="matrix(0.278, -0.212, 0.013, 0.214, 10.066, -1.237)" gradientUnits="objectBoundingBox">
      <stop offset="0" stop-color="#1a33ff"/>
      <stop offset="0.54" stop-color="#1a25ff"/>
      <stop offset="0.688" stop-color="#1a5bff"/>
      <stop offset="0.829" stop-color="#1a88ff"/>
      <stop offset="0.937" stop-color="#1aa3ff"/>
      <stop offset="1" stop-color="#1aaeff"/>
    </radialGradient>
    <radialGradient id="radial-gradient-9" cx="0.49" cy="0.111" r="3.252" gradientTransform="matrix(-0.245, 0.239, 0.013, 0.213, 0.574, -0.044)" xlink:href="#radial-gradient-5"/>
    <radialGradient id="radial-gradient-11" cx="0.263" cy="-1.117" r="2.585" gradientTransform="matrix(-0.565, 0.053, 0.025, 0.852, 0.385, -0.186)" gradientUnits="objectBoundingBox">
      <stop offset="0" stop-color="#fff"/>
      <stop offset="1" stop-color="#fff" stop-opacity="0"/>
    </radialGradient>
    <radialGradient id="radial-gradient-12" cx="0.522" cy="0.557" r="2.765" gradientTransform="matrix(-0.227, 0.239, 0.012, 0.213, 0.638, 0.323)" xlink:href="#radial-gradient-11"/>
    <radialGradient id="radial-gradient-13" cx="0.485" cy="0.331" r="2.835" gradientTransform="matrix(-0.222, -0.212, -0.011, 0.214, 0.56, 0.378)" gradientUnits="objectBoundingBox">
      <stop offset="0.003" stop-color="#00b4ff" stop-opacity="0.2"/>
      <stop offset="0.004" stop-color="#00b3ff" stop-opacity="0.2"/>
      <stop offset="0.198" stop-color="#00b0ff" stop-opacity="0.369"/>
      <stop offset="0.227" stop-color="#36c3ff" stop-opacity="0.412"/>
      <stop offset="0.293" stop-color="#aeeeff" stop-opacity="0.502"/>
      <stop offset="0.324" stop-color="#dff" stop-opacity="0.537"/>
      <stop offset="0.36" stop-color="#7cdbff" stop-opacity="0.584"/>
      <stop offset="0.397" stop-color="#22b9ff" stop-opacity="0.627"/>
      <stop offset="0.416" stop-color="#00adff" stop-opacity="0.643"/>
      <stop offset="0.479" stop-color="#00adff" stop-opacity="0.69"/>
      <stop offset="0.539" stop-color="#00adff" stop-opacity="0.71"/>
      <stop offset="0.551" stop-color="#18b6ff" stop-opacity="0.733"/>
      <stop offset="0.609" stop-color="#81dcff" stop-opacity="0.839"/>
      <stop offset="0.649" stop-color="#c3f5ff" stop-opacity="0.906"/>
      <stop offset="0.668" stop-color="#dff" stop-opacity="0.929"/>
      <stop offset="0.725" stop-color="#86f6ff" stop-opacity="0.957"/>
      <stop offset="0.778" stop-color="#3eefff" stop-opacity="0.976"/>
      <stop offset="0.816" stop-color="#11eaff" stop-opacity="0.988"/>
      <stop offset="0.835" stop-color="#00e9ff" stop-opacity="0.992"/>
      <stop offset="0.843" stop-color="#1fecff" stop-opacity="0.996"/>
      <stop offset="0.863" stop-color="#6ff4ff" stop-opacity="0.996"/>
      <stop offset="0.879" stop-color="#aafaff"/>
      <stop offset="0.891" stop-color="#cffdff"/>
      <stop offset="0.898" stop-color="#dff"/>
      <stop offset="0.926" stop-color="#90ffff"/>
      <stop offset="0.952" stop-color="#52ffff"/>
      <stop offset="0.974" stop-color="#25ffff"/>
      <stop offset="0.99" stop-color="#0affff"/>
      <stop offset="1" stop-color="aqua"/>
    </radialGradient>
    <radialGradient id="radial-gradient-14" cx="0.434" cy="0.986" r="1.682" gradientTransform="matrix(0.509, -0.708, 0.16, 0.221, 23.8, -10.05)" xlink:href="#radial-gradient-5"/>
    <radialGradient id="radial-gradient-15" cx="0.407" cy="0.238" r="0.912" gradientTransform="matrix(-0.676, -0.708, -0.866, 0.9, 0.885, 0.315)" xlink:href="#radial-gradient-5"/>
    <radialGradient id="radial-gradient-16" cx="0.501" cy="0.401" r="1.333" gradientTransform="matrix(-1, 0, 0, 1, 1.002, 0)" gradientUnits="objectBoundingBox">
      <stop offset="0" stop-color="#00b4ff" stop-opacity="0"/>
      <stop offset="0.049" stop-color="#00b3ff" stop-opacity="0.031"/>
      <stop offset="0.126" stop-color="#00b2ff" stop-opacity="0.122"/>
      <stop offset="0.222" stop-color="#00b1ff" stop-opacity="0.267"/>
      <stop offset="0.333" stop-color="#00afff" stop-opacity="0.467"/>
      <stop offset="0.451" stop-color="#00adff" stop-opacity="0.714"/>
      <stop offset="0.617" stop-color="#00cbff" stop-opacity="0.824"/>
      <stop offset="0.789" stop-color="#00e7ff" stop-opacity="0.918"/>
      <stop offset="0.922" stop-color="#00f8ff" stop-opacity="0.976"/>
      <stop offset="1" stop-color="aqua"/>
    </radialGradient>
    <radialGradient id="radial-gradient-17" cx="0.753" cy="0.116" r="1.417" gradientTransform="matrix(0.551, 0.39, -0.177, 0.696, 44.169, 10.799)" xlink:href="#radial-gradient-5"/>
    <clipPath id="clip-path-2">
      <path id="Path_66" data-name="Path 66" d="M572.01,253.666l7.925-3.347s34.519-8.674,81.882-20.508c-4.068.914-24.054,4.035-52.508-14.306-30.124-19.41-34.4-41.974-69.819-36.827a5.051,5.051,0,0,0-3.69,7.385l36.209,67.6Z" transform="translate(-535.198 -177.935)" fill="none"/>
    </clipPath>
    <radialGradient id="radial-gradient-18" cx="0.049" cy="-0.174" r="1.276" gradientTransform="matrix(-0.271, -0.963, -0.963, 0.271, 0.696, 1.537)" gradientUnits="objectBoundingBox">
      <stop offset="0" stop-color="#1b0275"/>
      <stop offset="0.353" stop-color="#1133a6"/>
      <stop offset="1" stop-color="#008cff"/>
    </radialGradient>
    <linearGradient id="linear-gradient" x1="0.508" y1="0.624" x2="0.493" y2="0.339" gradientUnits="objectBoundingBox">
      <stop offset="0" stop-color="#1a33ff"/>
      <stop offset="1" stop-color="#1aaeff"/>
    </linearGradient>
    <radialGradient id="radial-gradient-19" cx="-0.417" cy="0.694" r="2.093" gradientTransform="matrix(0.587, 0.091, -0.04, 0.753, 66.263, 3.996)" xlink:href="#radial-gradient-5"/>
    <radialGradient id="radial-gradient-20" cx="1.417" cy="0.694" r="2.136" gradientTransform="matrix(-0.575, 0.091, 0.04, 0.753, 2.129, 0.134)" xlink:href="#radial-gradient-5"/>
    <radialGradient id="radial-gradient-21" cx="0.172" cy="1.846" r="1.851" gradientTransform="matrix(-0.587, 0, 0, 1, 0.409, 0)" xlink:href="#radial-gradient-8"/>
  </defs>
  <g id="Group_88" data-name="Group 88" transform="translate(-1371.689 1339.437)">
    <g id="Group_83" data-name="Group 83" transform="translate(1371.689 -1339.437)">
      <circle id="Ellipse_1" data-name="Ellipse 1" cx="203.594" cy="203.594" r="203.594" opacity="0.61" fill="url(#radial-gradient)"/>
      <circle id="Ellipse_2" data-name="Ellipse 2" cx="198.697" cy="198.697" r="198.697" transform="translate(4.896 4.897)" fill="url(#radial-gradient-2)"/>
      <circle id="Ellipse_3" data-name="Ellipse 3" cx="193.805" cy="193.805" r="193.805" transform="translate(9.788 9.788)" fill="url(#radial-gradient-3)"/>
      <g id="Group_23" data-name="Group 23" transform="translate(9.788 9.788)">
        <g id="Group_22" data-name="Group 22" transform="translate(0)" clip-path="url(#clip-path)">
          <path id="Path_27" data-name="Path 27" d="M573.718,362.546,573,360.034l0-5.443a12.687,12.687,0,0,0,3.05,0c.538-.242.179-1.733.179-1.733l-2.514-2.152,5.025,1.073,1.8,2.808,5.565,3.467-2.511,1.437-1.615,1.077-2.421.361v-1.615s-2.782-.716-3.5.361l.359,1.974Zm62.186,77.59a5.554,5.554,0,0,1,4.6,0c.385,3.832,3.6,3.83,3.6,3.83l-4.1,2.3-4.1-1.531-5.368-1.786-4.6,3.325c-3.452-4.214,0-6.644,0-6.644ZM548.69,518.354l3.979-.84,6.91-4.4,6.074,0,5.234-2.726h2.1s-.421-2.932.207-3.142,5.234-2.936,5.234-2.936l3.562,1.255v-2.513l2.513-1.049h2.094l-.211-2.094s-1.887-3.723-.84-4.375,4.812-9.033,4.812-9.033l5.654-3.146,6.074,0,5.233-5.031,5.233-4.192,2.929-5.867,3.14-2.1s3.563,2.3,4.4,2.092,6.073-2.1,6.073-2.1l4.4-1.259,5.448,2.5,0,5.662,2.093-1.467v-2.1l-1.887-3.559-.839-2.513,1.885-.838,2.514,2.93,6.285,1.875,1.259,2.728,2.933,2.721.839,2.3,4.605-3.774a36.538,36.538,0,0,0,4.82,2.092c.628,0,4.815-3.146,4.815-3.146l2.3-4.4-1.26-5.864-1.052-6.074,3.978-2.516,5.446,0,4.278-1.26-1.976-3.14-2.308-4.606-2.1-3.35s-.589-1.534-1.258-1.884c-2.668-1.395,0-2.722,0-2.722s5.655-.422,6.493,0,3.143,1.674,3.143,1.674l0,4.818,4.191,1.882,6.494,1.462,4.4-4.4c.628-.629,2.09-7.542,2.09-7.542l-2.724-2.511-1.258-2.094-.212-5.027-2.724-2.3-1.049-2.722-3.143-2.3-2.934-2.721-2.723-.836-3.77.839c-.21-1.466-7.122-.833-7.122-.833l-2.722-.132.208-1.542c-1.257-1.047-5.446,0-5.446,0l-5.676-.462c-1.236.257-2.281,2.771-2.281,2.771l2.514,2.3-1.672,5.029-1.674,2.3.629,2.3-3.979-.626-.212-3.981-.212-4.816.625-5.283-3.775-8.12-15.3-9.835.207-3.56-1.05-5.027-2.722.936-4.821-5.711-6.285-2.08-3.772-2.559-1.887-3.769-6.913-2.09-6.915-3.557,3.144,3.35.42,2.931-3.771-.835-3.352-1.883-2.932-.836-2.723-.837-.839-1.884h1.885l2.931-1.049c1.884-1.467,4.187-3.145,4.187-3.145a2.3,2.3,0,0,0-.629-1.884l-1.886-1.7s-.839-1.021-.21-1.022,5.236-1,5.236-1l5.028,2.021h2.932l-3.563-3.114-3.979,0-4.4-1.045-5.446,0-3.769,0-5.028-1.044-3.562-1.959-4.4-.444-1.259-4.7,2.93-2.526,4.188-2.181.835-4.943,2.3-5.029h2.1l.211,2.722,3.351,0,.838,1.675,1.257.837,2.1.418,1.884-1.886-2.515-2.721,2.93-2.724,3.56-1.887,3.769,0,2.724.836,3.773,4.4,2.933,2.511-.836,2.3,1.049,3.477-.628,1.341,3.562,1.255,3.981.835,1.675-.42,1.258,1.686-2.3,4.7,2.3,1.569,3.142,0,2.72-3.3.628-1.94-1.886-1.035,1.465-2.525,4.4-.212,5.863-3.638,2.722,0,.627-2.23,1.885-.839-2.725-3.139-3.981-2.3-6.914-2.509L629,326.024l-5.447-1.253-3.772-2.092-3.354-2.93-4.4,0-5.237-1.33-3.351,0-1.468-3.9,6.7,0,2.515,1.927,4.4,0a7.621,7.621,0,0,1,3.349-1.93v-1.466l-2.305-2.093-2.935-2.3a17.422,17.422,0,0,1-2.516-4.4l-6.074,2.1-4.594-.246-3.155-.169-3.979.212-2.3.839c.629,1.675,3.142.417,3.142.417l7.541.833,3.352,1.883-1.049-2.3,3.562.208,4.191,2.72-2.931,1.467-6.913,0-3.769,1.469-3.142-1.255-3.35,1.258-3.978,1.259,4.818,1.506,4.191,1.973,4.19.912,3.353,1.254-1.465,2.933-8.8-.2-5.443,3.355-4.607,0-.211-1.885-1.048-1.884-2.1-.417,1.674-2.305.628-1.752h-2.513l-2.094,1.544c-1.675,1.257-5.238-1.54-5.238-1.54l-5.237-1.972,6.492-1.932,2.093-2.1c-.629-1.256,6.91-3.146,6.91-3.146l5.863-3.565,1.466-1.467,5.027,0-3.981-1.674-9.844,1.054-5.028-1.044-11.521-2.926-7.751-1.88-5.657-2.091,6.493-1.051s4.609,1.254,5.237,1.254,6.075.415,6.7.415l14.662-.01,4.61,1.045L585.42,298.4l2.514,1.465,4.4,0,2.513.837-3.352-2.512,3.56-.839,4.4,1.044,5.448,3.139-2.512.839-3.561-1.464-2.932.63,3.142.836,1.257,1.675-2.094.629,5.656.416,9.843-1.682,3.983,4.814,7.963,5.65-2.093,1.677,1.466.88,1.885,1,5.446-1.007,7.542,1.971,13.826,3.419L699.824,366.2l18.446,24.076,10.721,64.087-18.854-6.273-2.93,3.143-5.027.841-3.35,2.1-3.561-1.464-2.93,2.935-6.492,3.565-6.283.841-1.881,6.285s-4.4,3.983-4.186,4.82-1.464,4.61-2.3,4.61-6.073,2.727-6.073,2.727l-3.56.421-1.468-3.141-3.142,0,0,3.142-1.255,1.676-.417,4.818-1.254,3.561,2.1,2.3,3.355,4.21,4.193,5.839-.416,5.656,1.049,3.769-3.141,1.049,2.725,3.768a45.92,45.92,0,0,0-1.463,4.819c0,.628-2.3,5.238-2.3,5.238l-2.931,2.515-1.254,4.19-7.112,14.666-5.024,4.192-7.329,3.775s-4.6,5.03-4.814,5.659-2.507,9.845-2.507,9.845l.212,5.237-1.463,5.447-.415,6.075-.624,8.378-2.09,6.7-1.88,8.8,2.305,2.931-1.463,4.344-1.672,6.34-2.93,3.143.212,5.026-.626,5.028-12.977,13.831-2.512,2.724,0-6.493-4.134-2.421,0-3.859,4.132-1.888,0-2.932-2.067-1.883-2.069-3.35v-2.723c-1.733-.627,0-2.513,0-2.513h2.876l.207-2.723h-2.722l-1.132,1.676-2.22-1.674,1.674-3.352c-.42-1.047-3.352,0-3.352,0l-5.029-2.929-2.1-2.512,0-3.351,2.512-2.1,2.092-3.352-2.513,0s-3.768,1.887-5.027,0-3.144-4.4-3.144-4.4l-2.308-5.443s-4.4-7.957-4.823-8.585,0-8.379,0-8.379l-6.916-5.65-4.608,0-3.774-6.28-2.936-4.133,0-6.967-1.051-6.7,1.672-6.7-5.869-7.754-4.4-4.186,1.671-7.751ZM501.918,353.8l-1.427.835-1.906-1.665h-2.619l-2.5-.832-1.133-1.547.535-2.143-1.072-1.13c-.12-1.726,2.617-2.978,2.617-2.978h1.547l1.906,2.2h2.024l.716,2.5-.355,1.935,1.667,1.041ZM489.29,337.974l2.143.951,0,3.215-.237.834a8.962,8.962,0,0,0-.237,2.024l-1.547,1.072-1.547.953-.713,1.429s.238,1.428,1.072,1.428l1.9.593-.714,1.31s1.429.714,1.548,1.309l-1.308.953,1.191,1.19,2.618,0v1.429l-5.476,0-2.263-1.427-3.333.6s-2.738-.593-3.334-.593l.477-.6-.834-1.071-1.311-1.546,1.666-.716,1.9-.6-.239-2.024,1.785-1.371,2.737-1.489.236-2.738-.239-2.381,2.858,0,.594-1.19-1.668-1.547ZM473.7,348.222v-.893h-1.9l-1.072-.773,0-2.976-1.429-.714.475-2.381,2.261-.835,3.334,1.07v1.786l2.024.237.477,1.606-1.428.656,2.263,1.308.6,1.011-1.9,1.727Zm-119.932,72.25-7.875,4.282-4.052-1.573-2.7,3.828-7.2,1.58-3.15,1.578L320,406.988l2.468-12.38,39.348-64.4,11.7-8.784,14.179-.009,6.3.9,1.577,3.15,3.376-1.127,1.573-2.927h3.151l-1.349,1.35-1.124,2.252,4.951,0,0,2.926,3.546-.514,2.083-.349,1.216.606-1.128.7-1.563.349,1.476.52,1.823-.7,2.343-.783.694-1.564,1.736-1.39,2-.262,1.415-1.65-3.065.262-2.691,1.218-2.258.261s-1.389-.346-1.564-.086a17.25,17.25,0,0,1-3.3.7l-1.825-1.388,3.037-2.456,5.47-1.63s9.2-1.265,9.637-1.243a37.432,37.432,0,0,0,3.906-1.2l3.213-.783,7.033,0,10.681,1.969,5.906,3.752,7.037,6.334s6.078.864,6.426.951a29.437,29.437,0,0,1,2.867,2.691l-1.387,3.04.348,1.476-.955.782-.693,1.389-.954,1.477-3.56-.519-3.822-2.169-2.951,1.565-2.256,3.909-.432,2.344-2.692.523-1.823-1.561-1.911-.433-1.044-3.125L448,338.511l-2.606-.781v-1.649l.954-.7,1.215-.782.433-2.866-3.973-2.515s-2.108-1.909-2.108-2.257-1.043-1.475-1.043-1.475-1.649.088-2.17.174-3.3,1.045-3.3,1.045l-1.042.782,3.214,1.56,1.891,1.909,1.411.955-1.3,3.04-3.386,1.738-3.039-.605-4.813-.248s-5.519,1.123-5.779,1.3,1.595.781,1.595.781l2.139.606,1.216.781,2-1.044a5.244,5.244,0,0,1,2.865-.956,5.853,5.853,0,0,1,2.344,1.041l-1.3,2-1.823,1.216s.783,2.258,1.3,2.17,1.476-1.65,1.476-1.65l2-.783,1.3.781-.173,1.91.436,2.692,2.171,1.387,1.564,1.215,2.083-1.217,2.692.78,4.689-.263,1.043.955,1.649-.7s4.081.171,4.341.258a15.589,15.589,0,0,0,2.691-1.217l1.041-2.344-1.3-1.563.608-.7.521-1.3-.87-1.042,1.3-.348,2.172,2.169.088,2.084s-1.127,2-1.214,2.258a14.79,14.79,0,0,0-.086,1.823l2.171.867,2.344.693-.433.868-2.431.435.782,1.389,1.389.086.7,1.737.434.954,1.91-.522-.088-1.215-.088-1.564.781-.782,1.129,1.215,1.217,1.563,2.779.519,1.3,1.042.869,1.909,2.084.954,1.65,1.042,2.518-1.3.348.607-.52,1.3.608.694,3.3-.263,1.823-.261.262,2.431-3.213.523-1.561,1.389s-1.215,1.477-1.476,1.477-2,.435-2,.435l.7,3.82,1.565,3.559,6.512-.091,7.12-.178,2.259.866.7,2-.606,2.084,1.3,4.08.522,2.083a9.563,9.563,0,0,1-.172,2.083c-.173.261-1.214,2.086-1.214,2.086l.783,2.951-2.344.7-3.907.263-2.082,1.131-1.564.261-2.605-1.127-3.907-.519-3.649-3.036.605-3.735-2.259-2.863-4.777-3.036-2.085-.693.259-3.126-2.866-1.648-2.865.957-1.91-1.042-5.819-1.733-5.814,5.387-7.985,5.475s-1.647,3.3-1.735,3.56a10.966,10.966,0,0,0,1.217,2.258l4.515,0,1.65.346s-.521,1.3-.867,1.3-3.907,1.652-3.907,1.652l-1.128.868-.607-.173.086-1.649-.349-1.563-1.215.174a11.264,11.264,0,0,1-1.3-1.736,24.44,24.44,0,0,0-1.217-2.257l.954-1.825-.521-1.215-1.476.174-.173,1.824H439l.172-2.258,1.389-.868,2-1.217,1.3-1.911,2.257-.609,2.6-1.826.606-2.083,2.43-1.217.608-1.911-.7-2-1.563-.259-.086,1.91-1.563.522-1.043-.607-1.561,2.78-3.212,1.826-2.517,1.477-1.563.174-2.6,2.867-.606,3.647-4.859,5.04-.693,3.56-3.472,2.433-.955-.781.52-2.259-1.911-1.041.607-1.563,1.909-.783.781-1.564-.349-2.518,1.128-1.3-1.043.174-.781.955-1.216-1.649-2.085.089-2.083.869-1.561,2.085-1.561,2.432s1.043.607,1.129.867a7.816,7.816,0,0,1-.867,1.911l-2,1.825-1.561,2.258-3.126-.084-.345,1.389-2.258.262-2.171-.52-.609-1.388-.954,1.3-2.518.87-2.171-.172-1.825-2-1.649.7-1.215.782.435,1.737-1.08,3.572,1.578,3.6,0,4.727,9.453-.007,3.6,1.348,5.851-2.929,3.826.448,6.526-2.367,5.176,0,1.577,1.462-.9,2.477,2.027,2.024,5.175-3.154,4.051.448,1.574-2.7,6.076-1.805,4.275-2.028,3.15-1.577-3.829-4.5,1.123-3.828,2.7-1.577,15.982,1.791,6.3,2.472,4.052.222,4.277,1.573,5.176-1.129,3.378,4.05,4.053,2.7,3.657,7.65-.95,3.376,4.73,4.5,4.728,1.8L515.6,425.1s4.958,11.026,5.409,11.925,0,6.527,0,6.527l-2.022,6.528,4.733,11.026-1.8,5.4-2.472,4.953-6.522,9.232.192,4.632-13.451,10.249-9.016-3.615-8.776,2.706-10.807-5.845s-3.6,0-4.726,2.029-1.8,3.827-5.85,3.83-6.074,4.5-6.074,4.5l1.8,5.176-.9,2.7,1.8,4.276-4.272,8.78-3.147,6.755-2.922,6.528-.67,8.328.678,4.726,5.183,9-1.567,13.956-1.8,3.152.677,2.25-3.149,3.377-2.022,7.879,1.805,7.426-2.7,5.629s-2.472,6.079-2.7,6.754-1.8,2.928-1.573,4.053.9,4.051.9,4.051l-.9,4.5-11.478.008-5.4-1.8L408.8,603.2a46.431,46.431,0,0,1-3.378-4.5c-.226-.675-2.031-9-2.031-9l-9.455-3.82,0-7.427,2.022-5.854L391,567.872l-13.284-7.644-1.129-5.852-.005-10.128,2.471-7.655-.678-4.725,2.474-2.027-4.28-6.3-1.581-8.326-6.3-3.822-1.352-3.826-11.486-11.9-3.608-11.322-3.381-6.248,0-6.753L352,470.215l3.6,2.924,4.952.447,5.178,1.347,4.274-2.7-.452-3.375,5.4-6.08,5.4-3.154,2.471-8.105L388,446.56l.446-6.3,3.822-5.63,4.72-10.582,4.949-4.954.448-4.052-2.025.9-2.25,1.8-.9,3.376c-1.8,0-2.479-3.374-2.479-3.374l-1.573,3.376-1.572,4.278-4.947,7.431-2.7.452-3.147,6.529.226,2.926-9,9.233-1.57,8.555-1.573,3.827-2.924,2.928-13.506-3.593-2.478-2.249-5.853-1.8,0-2.7-6.755-4.5-2.873-5.223-1.633-2.653-2.253-3.149,3.823-5.179,5.2-4.407,1.658-4.141,1.916.44,1.352,4.051,5.177,1.347,2.7-1.8.9-3.827,1.8.448,2.7-4.953,2.475-1.351,3.148-5.179-2.252-2.474Zm105.311-33.192-.476-2.143v-3.095a3.436,3.436,0,0,1,1.725-.835,1.884,1.884,0,0,1,1.251.475l0,3.453a6.369,6.369,0,0,0,0,2.143Zm0-9.285a1.467,1.467,0,0,1,1.665-1.55l.835,2.381-.832,1.786h-1.667ZM520.448,316.5l-8.433.005-4.6-6.619-10.58.007-1.688-4.215-6.519-3.447c-3.069-2.681-.005-7.538-.005-7.538l13.264-1.67,13.186,1.653,19.164-3.59,11.811,5.359s8.512,4.595,9.661,4.21,6.9.018,6.9.018-4.213,3.814-6.13,4.2a13.751,13.751,0,0,1-4.217,0s-.008,3.735-.765,4.6c-2.681,3.068,2.84,5.364,2.84,5.364l0,3.615s-.6,6.847-1.733,6.535-3.015,3.654-3.015,3.654l-3.524,3.835-6.441,0-8.055-9.578-7.93-3.438ZM355.011,545.81l1.038-2.825,1.19,1.189,1.043,2.378,2.379,1.485,1.042,3.121,1.489,3.715,5.8,1.78,2.53,4.309.6,7.135,2.082,3.417,2.38,2.525-.889,4.162-1.634,1.933,1.636,2.228-1.634,1.34-5.5,0-3.124-4.606s-2.531-5.349-2.531-5.8-1.192-5.35-1.192-5.35l-4.314-5.646,0-7.58-2.974,0,.889-5.5Zm300.054-114.2,6.516-2.22s1.8.257,3.927.754a25.12,25.12,0,0,1,4.56,1.458l-9.251,3.155-3.733,0-6.231,5.371-4.217,0s-3.451-1.531-2.3-4.215l5.365-1.92Z" transform="translate(-328.716 -274.879)" fill="url(#radial-gradient-4)"/>
        </g>
      </g>
    </g>
    <g id="Group_84" data-name="Group 84" transform="translate(1371.689 -1145.742)">
      <g id="Group_41" data-name="Group 41">
        <g id="Group_36" data-name="Group 36" transform="translate(99.801 75.91)">
          <path id="Path_52" data-name="Path 52" d="M553.391,220.536c3.483-5.413,8.272-14.983,7.622-26.059l-24.259,23.174A67.109,67.109,0,0,0,553.391,220.536Z" transform="translate(-536.754 -194.477)" fill="url(#radial-gradient-5)"/>
        </g>
        <g id="Group_40" data-name="Group 40">
          <path id="Path_53" data-name="Path 53" d="M518.99,211.386,463.1,150.036s-7.292-5.834-19.555-.79a1.96,1.96,0,0,0-1.115,2.5l18.89,73.9C480.843,220.8,500.384,215.969,518.99,211.386Z" transform="translate(-243.243 -147.193)" fill="url(#radial-gradient-6)"/>
          <path id="Path_54" data-name="Path 54" d="M486.36,223.09l-18.321-71.674c9.33,1.681,12.7,7.674,12.7,7.674l21.98,59.946Q494.556,221.057,486.36,223.09Z" transform="translate(-268.283 -144.636)" fill="url(#radial-gradient-7)"/>
          <path id="Path_55" data-name="Path 55" d="M745.431,176.878s-12.218-11.663-39.989-6.664-348.248,85.534-348.248,85.534l-19.827,8.374a8.457,8.457,0,0,0-5.166,7.792h0a8.44,8.44,0,0,0,5.916,8.067c15.02,4.709,57.8,15.688,118.5,11.089a106.755,106.755,0,0,0,18.643-3.123l253.5-65.524s30.31-9.77,35.43-23.968C769.516,183.7,745.431,176.878,745.431,176.878Z" transform="translate(-312.458 -134.01)" fill="url(#radial-gradient-8)"/>
          <path id="Path_56" data-name="Path 56" d="M469.243,272.762a110.619,110.619,0,0,1-19.3,3.232c-56.159,4.255-97.48-4.359-116.753-9.723a8.44,8.44,0,0,1,2.876-2.019l19.636-8.626s320.116-80.683,348.246-85.533c16.84-3.031,28.145-.472,34.232,3.135a24.572,24.572,0,0,1,5.95,3.781s13.315,3.776,17.956,11.78c-10.863,9.843-30.315,16.118-30.315,16.118Z" transform="translate(-311.151 -134.142)" fill="url(#radial-gradient-9)"/>
          <path id="Path_57" data-name="Path 57" d="M469.243,272.762a110.619,110.619,0,0,1-19.3,3.232c-56.159,4.255-97.48-4.359-116.753-9.723a8.44,8.44,0,0,1,2.876-2.019l19.636-8.626s320.116-80.683,348.246-85.533c16.84-3.031,28.145-.472,34.232,3.135a24.572,24.572,0,0,1,5.95,3.781s13.315,3.776,17.956,11.78c-10.863,9.843-30.315,16.118-30.315,16.118Z" transform="translate(-311.151 -134.142)" fill="url(#radial-gradient-9)"/>
          <path id="Path_58" data-name="Path 58" d="M371.6,182.157l.033-.029A30.935,30.935,0,0,1,377.907,188l.067.034c-.321.885-1.8,3.456-8.341,5.808a44.653,44.653,0,0,0-8-7.6A30.835,30.835,0,0,0,371.6,182.157ZM356.518,187.3a30.181,30.181,0,0,1,6.663,8.349c-2.4.527-5.184,1.008-8.419,1.413l-3.173-9.068C353.224,187.808,354.876,187.577,356.518,187.3Z" transform="translate(43.406 -126.043)" fill="url(#radial-gradient-11)"/>
          <path id="Path_59" data-name="Path 59" d="M743.378,179.61c-6.442-3.818-11.807-4.984-29.628-1.776-29.768,5.134-368.545,90.52-368.545,90.52l-1.146.5c-3.871-.9-7.277-1.78-10.177-2.587a8.444,8.444,0,0,1,2.876-2.019l19.635-8.626s320.117-80.683,348.247-85.533c16.839-3.031,28.144-.472,34.231,3.135a24.6,24.6,0,0,1,5.951,3.781s11.484,3.266,16.836,10.148C757.056,183.375,748.717,179.9,743.378,179.61Z" transform="translate(-311.848 -134.142)" fill="url(#radial-gradient-12)"/>
          <path id="Path_60" data-name="Path 60" d="M338.125,269.421c15.021,4.708,57.8,15.688,118.506,11.087a106.868,106.868,0,0,0,18.643-3.121l253.5-65.524s30.311-9.772,35.429-23.968a12.493,12.493,0,0,0,.733-3.548,11.944,11.944,0,0,1-.733,4.8c-5.118,14.2-35.429,23.97-35.429,23.97l-253.5,65.523a106.728,106.728,0,0,1-18.643,3.123c-60.71,4.6-103.485-6.38-118.506-11.088a8.44,8.44,0,0,1-5.915-8.067c0-.22.031-.433.048-.65A8.419,8.419,0,0,0,338.125,269.421Z" transform="translate(-312.466 -124.7)" opacity="0.43" fill="url(#radial-gradient-13)"/>
          <path id="Path_61" data-name="Path 61" d="M643.29,210.807s-98.252,95.367-137.705,122.556c-31.133,21.458-64.591,30.3-77.317,33.073a1.641,1.641,0,0,1-1.5-2.773L531.439,241.543S577.85,203.479,643.29,210.807Z" transform="translate(-341.81 -109.248)" fill="url(#radial-gradient-14)"/>
          <path id="Path_62" data-name="Path 62" d="M558.068,238.141s16.216-13.289,42.98-22.652c-15.035,17.4-74.5,85.628-100.063,106.33a167.3,167.3,0,0,1-31.806,20.035Z" transform="translate(-368.442 -105.847)" fill="url(#radial-gradient-15)"/>
          <g id="Group_39" data-name="Group 39" transform="translate(0 49.353)">
            <path id="Path_63" data-name="Path 63" d="M534.712,210.128Z" transform="translate(-407.316 -158.446)" fill="url(#radial-gradient-16)"/>
            <path id="Path_64" data-name="Path 64" d="M572.01,253.666l7.925-3.347s34.519-8.674,81.882-20.508c-4.068.914-24.054,4.035-52.508-14.306-30.124-19.41-34.4-41.974-69.819-36.827a5.051,5.051,0,0,0-3.69,7.385l36.209,67.6Z" transform="translate(-535.198 -177.935)" fill="url(#radial-gradient-17)"/>
            <g id="Group_38" data-name="Group 38">
              <g id="Group_37" data-name="Group 37" clip-path="url(#clip-path-2)">
                <path id="Path_65" data-name="Path 65" d="M619.158,188.174a28.842,28.842,0,1,1-36.992,17.182A28.875,28.875,0,0,1,619.158,188.174Zm-35.1,16.986,5.61,2.052c5.47-14.054,15.991-17.934,22.833-18.9A27.181,27.181,0,0,0,584.063,205.161Zm35.067-14.477-8.806,24.081,7.97,2.914C624.051,201.4,620.827,193.4,619.13,190.683Zm-9.381,25.651-8.805,24.079c3.057-.984,10.677-5.017,16.778-21.165ZM599.374,239.84l8.8-24.081-7.968-2.914C594.452,229.126,597.677,237.122,599.374,239.84Zm9.381-25.65,8.811-24.1c-3.038.95-10.641,4.919-16.781,21.181Zm11.11,4.063,7.97,2.914c5.053-14.779-1.467-24.24-5.924-28.632C623.539,196.875,624.581,204.932,619.865,218.253Zm-.573,1.57c-4.989,13.218-10.983,18.7-15.027,20.971,6.239-.48,17.324-3.5,23-18.057Zm-20.655-7.552-7.968-2.913c-5.056,14.779,1.466,24.239,5.924,28.632C594.966,233.648,593.924,225.591,598.637,212.271Zm.575-1.57c4.941-13.1,10.872-18.6,14.914-20.907-6.266.57-17.307,3.707-22.883,17.993Zm24.938-18.132c4.605,5.152,10.14,14.9,5.255,29.172l5.61,2.052A27.184,27.184,0,0,0,624.15,192.569Zm10.292,32.794-5.608-2.052c-5.474,14.053-15.995,17.934-22.836,18.9A27.181,27.181,0,0,0,634.442,225.363Zm-40.086,12.591c-4.6-5.152-10.143-14.9-5.257-29.172l-5.612-2.051A27.183,27.183,0,0,0,594.355,237.954Z" transform="translate(-584.059 -172.799)" fill="url(#radial-gradient-18)"/>
              </g>
            </g>
          </g>
          <path id="Path_67" data-name="Path 67" d="M534.289,193.012l3.509-.812a2.2,2.2,0,0,1,2.643,1.649l1.487,6.416a2.2,2.2,0,0,1-1.649,2.644l-3.51.812a2.2,2.2,0,0,1-2.642-1.649l-1.487-6.417A2.2,2.2,0,0,1,534.289,193.012Zm-23.53,5.694,3.508-.812a2.2,2.2,0,0,1,2.644,1.648l1.485,6.417a2.2,2.2,0,0,1-1.648,2.644l-3.509.813a2.2,2.2,0,0,1-2.642-1.649l-1.488-6.417A2.2,2.2,0,0,1,510.758,198.706ZM487.226,204.4l3.508-.812a2.2,2.2,0,0,1,2.644,1.649l1.484,6.417a2.2,2.2,0,0,1-1.649,2.644l-3.508.812a2.2,2.2,0,0,1-2.644-1.649l-1.486-6.416A2.2,2.2,0,0,1,487.226,204.4Zm-23.53,5.695,3.509-.812a2.2,2.2,0,0,1,2.642,1.65l1.487,6.416a2.2,2.2,0,0,1-1.649,2.644l-3.508.813a2.2,2.2,0,0,1-2.643-1.649l-1.486-6.417A2.2,2.2,0,0,1,463.7,210.095Zm-23.531,5.694,3.508-.812a2.2,2.2,0,0,1,2.644,1.651l1.484,6.415a2.2,2.2,0,0,1-1.648,2.644l-3.508.812A2.2,2.2,0,0,1,440,224.85l-1.486-6.418A2.2,2.2,0,0,1,440.164,215.789Zm-23.531,5.7,3.507-.815a2.2,2.2,0,0,1,2.645,1.65l1.485,6.416a2.2,2.2,0,0,1-1.649,2.643l-3.507.813a2.2,2.2,0,0,1-2.645-1.649l-1.485-6.417A2.2,2.2,0,0,1,416.633,221.485ZM393.1,227.179l3.509-.813a2.2,2.2,0,0,1,2.642,1.65l1.487,6.417a2.2,2.2,0,0,1-1.648,2.643l-3.509.812a2.2,2.2,0,0,1-2.644-1.649l-1.486-6.416A2.2,2.2,0,0,1,393.1,227.179Zm-23.533,5.695,3.509-.812a2.2,2.2,0,0,1,2.645,1.649l1.485,6.417a2.2,2.2,0,0,1-1.65,2.642l-3.51.812a2.2,2.2,0,0,1-2.641-1.649l-1.488-6.417A2.2,2.2,0,0,1,369.569,232.874Zm-23.529,5.694,3.508-.812a2.205,2.205,0,0,1,2.645,1.649l1.486,6.416a2.2,2.2,0,0,1-1.65,2.643l-3.508.812a2.2,2.2,0,0,1-2.645-1.649l-1.484-6.417A2.2,2.2,0,0,1,346.039,238.568ZM580.51,181.655c6.491-1.346,19.159-4.556,24.431-9.968l.023-.026a24.221,24.221,0,0,1,5.679,3.585l.058.017c-.219,1.355-2.638,7.793-28.6,13.573a3.678,3.678,0,1,1-1.586-7.182Z" transform="translate(-177.669 -132.379)" fill="url(#linear-gradient)"/>
        </g>
        <path id="Path_68" data-name="Path 68" d="M644.605,233.27s-41.773,44.4-91.58,52.613L602.9,236.572S618.8,228.913,644.605,233.27Z" transform="translate(-546.605 -95.895)" fill="url(#radial-gradient-19)"/>
        <path id="Path_69" data-name="Path 69" d="M642.862,232.6c.586.09,1.136.158,1.743.26,0,0-41.773,44.4-91.58,52.613l.914-.794C602.1,275.483,642.065,233.442,642.862,232.6Z" transform="translate(-546.605 -95.487)" fill="url(#radial-gradient-20)"/>
      </g>
      <path id="Path_70" data-name="Path 70" d="M559.1,199.425c1.446,1.029,2.936,2.055,4.514,3.071,1.317.849,2.609,1.637,3.889,2.4l-16.8,4.857Zm11.488,7.237a89.73,89.73,0,0,0,24.439,9.464l-46.692,10.706Z" transform="translate(-489.505 -115.572)" fill="url(#radial-gradient-21)"/>
    </g>
    <path id="Path_101" data-name="Path 101" d="M242.384-26.506" transform="translate(1147.5 -1135.5)" fill="none" stroke="#707070" stroke-linejoin="round" stroke-width="1"/>
  </g>
</svg>
