<svg id="Group_119" data-name="Group 119" xmlns="http://www.w3.org/2000/svg" xmlns:xlink="http://www.w3.org/1999/xlink" width="954.439" height="542.556" viewBox="0 0 954.439 542.556">
  <defs>
    <radialGradient id="radial-gradient" cx="0.184" cy="-0.151" r="1.516" gradientTransform="matrix(1.067, 0.091, -0.073, 0.753, 302.61, 13.201)" gradientUnits="objectBoundingBox">
      <stop offset="0" stop-color="#fff"/>
      <stop offset="0.536" stop-color="#fff"/>
      <stop offset="0.565" stop-color="#f7fcff"/>
      <stop offset="0.76" stop-color="#cbe9ff"/>
      <stop offset="0.912" stop-color="#b0deff"/>
      <stop offset="1" stop-color="#a6daff"/>
    </radialGradient>
    <radialGradient id="radial-gradient-2" cx="0.465" cy="-0.291" r="1.828" gradientTransform="matrix(0.578, 0.825, -0.408, 0.273, 67.99, 34.902)" xlink:href="#radial-gradient"/>
    <radialGradient id="radial-gradient-3" cx="1.269" cy="0.429" r="1.728" gradientTransform="matrix(0.252, 0.993, 0.993, -0.059, 0.815, -0.851)" xlink:href="#radial-gradient"/>
    <radialGradient id="radial-gradient-4" cx="0.515" cy="0.331" r="2.323" gradientTransform="matrix(0.278, -0.212, 0.013, 0.214, 10.066, -1.237)" gradientUnits="objectBoundingBox">
      <stop offset="0" stop-color="#1a33ff"/>
      <stop offset="0.54" stop-color="#1a25ff"/>
      <stop offset="0.688" stop-color="#1a5bff"/>
      <stop offset="0.829" stop-color="#1a88ff"/>
      <stop offset="0.937" stop-color="#1aa3ff"/>
      <stop offset="1" stop-color="#1aaeff"/>
    </radialGradient>
    <radialGradient id="radial-gradient-5" cx="0.49" cy="0.111" r="3.252" gradientTransform="matrix(-0.245, 0.239, 0.013, 0.213, 0.574, -0.044)" xlink:href="#radial-gradient"/>
    <radialGradient id="radial-gradient-7" cx="0.263" cy="-1.117" r="2.585" gradientTransform="matrix(-0.565, 0.053, 0.025, 0.852, 0.385, -0.186)" gradientUnits="objectBoundingBox">
      <stop offset="0" stop-color="#fff"/>
      <stop offset="1" stop-color="#fff" stop-opacity="0"/>
    </radialGradient>
    <radialGradient id="radial-gradient-8" cx="0.522" cy="0.557" r="2.765" gradientTransform="matrix(-0.227, 0.239, 0.012, 0.213, 0.638, 0.323)" xlink:href="#radial-gradient-7"/>
    <radialGradient id="radial-gradient-9" cx="0.485" cy="0.331" r="2.835" gradientTransform="matrix(-0.222, -0.212, -0.011, 0.214, 0.56, 0.378)" gradientUnits="objectBoundingBox">
      <stop offset="0.003" stop-color="#00b4ff" stop-opacity="0.2"/>
      <stop offset="0.004" stop-color="#00b3ff" stop-opacity="0.2"/>
      <stop offset="0.198" stop-color="#00b0ff" stop-opacity="0.369"/>
      <stop offset="0.227" stop-color="#36c3ff" stop-opacity="0.412"/>
      <stop offset="0.293" stop-color="#aeeeff" stop-opacity="0.502"/>
      <stop offset="0.324" stop-color="#dff" stop-opacity="0.537"/>
      <stop offset="0.36" stop-color="#7cdbff" stop-opacity="0.584"/>
      <stop offset="0.397" stop-color="#22b9ff" stop-opacity="0.627"/>
      <stop offset="0.416" stop-color="#00adff" stop-opacity="0.643"/>
      <stop offset="0.479" stop-color="#00adff" stop-opacity="0.69"/>
      <stop offset="0.539" stop-color="#00adff" stop-opacity="0.71"/>
      <stop offset="0.551" stop-color="#18b6ff" stop-opacity="0.733"/>
      <stop offset="0.609" stop-color="#81dcff" stop-opacity="0.839"/>
      <stop offset="0.649" stop-color="#c3f5ff" stop-opacity="0.906"/>
      <stop offset="0.668" stop-color="#dff" stop-opacity="0.929"/>
      <stop offset="0.725" stop-color="#86f6ff" stop-opacity="0.957"/>
      <stop offset="0.778" stop-color="#3eefff" stop-opacity="0.976"/>
      <stop offset="0.816" stop-color="#11eaff" stop-opacity="0.988"/>
      <stop offset="0.835" stop-color="#00e9ff" stop-opacity="0.992"/>
      <stop offset="0.843" stop-color="#1fecff" stop-opacity="0.996"/>
      <stop offset="0.863" stop-color="#6ff4ff" stop-opacity="0.996"/>
      <stop offset="0.879" stop-color="#aafaff"/>
      <stop offset="0.891" stop-color="#cffdff"/>
      <stop offset="0.898" stop-color="#dff"/>
      <stop offset="0.926" stop-color="#90ffff"/>
      <stop offset="0.952" stop-color="#52ffff"/>
      <stop offset="0.974" stop-color="#25ffff"/>
      <stop offset="0.99" stop-color="#0affff"/>
      <stop offset="1" stop-color="aqua"/>
    </radialGradient>
    <radialGradient id="radial-gradient-10" cx="0.434" cy="0.986" r="1.682" gradientTransform="matrix(0.509, -0.708, 0.16, 0.221, 23.8, -10.05)" xlink:href="#radial-gradient"/>
    <radialGradient id="radial-gradient-11" cx="0.407" cy="0.238" r="0.912" gradientTransform="matrix(-0.676, -0.708, -0.866, 0.9, 0.885, 0.315)" xlink:href="#radial-gradient"/>
    <radialGradient id="radial-gradient-12" cx="0.501" cy="0.401" r="1.333" gradientTransform="matrix(-1, 0, 0, 1, 1.002, 0)" gradientUnits="objectBoundingBox">
      <stop offset="0" stop-color="#00b4ff" stop-opacity="0"/>
      <stop offset="0.049" stop-color="#00b3ff" stop-opacity="0.031"/>
      <stop offset="0.126" stop-color="#00b2ff" stop-opacity="0.122"/>
      <stop offset="0.222" stop-color="#00b1ff" stop-opacity="0.267"/>
      <stop offset="0.333" stop-color="#00afff" stop-opacity="0.467"/>
      <stop offset="0.451" stop-color="#00adff" stop-opacity="0.714"/>
      <stop offset="0.617" stop-color="#00cbff" stop-opacity="0.824"/>
      <stop offset="0.789" stop-color="#00e7ff" stop-opacity="0.918"/>
      <stop offset="0.922" stop-color="#00f8ff" stop-opacity="0.976"/>
      <stop offset="1" stop-color="aqua"/>
    </radialGradient>
    <radialGradient id="radial-gradient-13" cx="0.753" cy="0.116" r="1.417" gradientTransform="matrix(0.551, 0.39, -0.177, 0.696, 44.169, 10.799)" xlink:href="#radial-gradient"/>
    <clipPath id="clip-path">
      <path id="Path_66" data-name="Path 66" d="M612.843,337.669l16.716-7.059s72.808-18.3,172.708-43.256c-8.581,1.927-50.735,8.51-110.752-30.174-63.539-40.94-72.564-88.532-147.263-77.676a10.655,10.655,0,0,0-7.783,15.576l76.374,142.589Z" transform="translate(-535.198 -177.935)" fill="none"/>
    </clipPath>
    <radialGradient id="radial-gradient-14" cx="0.049" cy="-0.174" r="1.276" gradientTransform="matrix(-0.271, -0.963, -0.963, 0.271, 0.696, 1.537)" gradientUnits="objectBoundingBox">
      <stop offset="0" stop-color="#1b0275"/>
      <stop offset="0.353" stop-color="#1133a6"/>
      <stop offset="1" stop-color="#008cff"/>
    </radialGradient>
    <linearGradient id="linear-gradient" x1="0.508" y1="0.624" x2="0.493" y2="0.339" gradientUnits="objectBoundingBox">
      <stop offset="0" stop-color="#1a33ff"/>
      <stop offset="1" stop-color="#1aaeff"/>
    </linearGradient>
    <radialGradient id="radial-gradient-15" cx="-0.417" cy="0.694" r="2.093" gradientTransform="matrix(0.587, 0.091, -0.04, 0.753, 66.263, 3.996)" xlink:href="#radial-gradient"/>
    <radialGradient id="radial-gradient-16" cx="1.417" cy="0.694" r="2.136" gradientTransform="matrix(-0.575, 0.091, 0.04, 0.753, 2.129, 0.134)" xlink:href="#radial-gradient"/>
    <radialGradient id="radial-gradient-17" cx="0.172" cy="1.846" r="1.851" gradientTransform="matrix(-0.587, 0, 0, 1, 0.409, 0)" xlink:href="#radial-gradient-4"/>
  </defs>
  <g id="Group_41" data-name="Group 41">
    <g id="Group_36" data-name="Group 36" transform="translate(210.502 160.111)">
      <path id="Path_52" data-name="Path 52" d="M571.844,249.44c7.347-11.418,17.447-31.6,16.076-54.963l-51.167,48.878A141.546,141.546,0,0,0,571.844,249.44Z" transform="translate(-536.754 -194.477)" fill="url(#radial-gradient)"/>
    </g>
    <g id="Group_40" data-name="Group 40">
      <path id="Path_53" data-name="Path 53" d="M604.051,282.591,486.17,153.19s-15.38-12.3-41.246-1.666a4.134,4.134,0,0,0-2.351,5.282L482.415,312.67C523.589,302.453,564.805,292.258,604.051,282.591Z" transform="translate(-22.439 -147.193)" fill="url(#radial-gradient-2)"/>
      <path id="Path_54" data-name="Path 54" d="M506.682,302.592,468.039,151.416c19.679,3.545,26.782,16.186,26.782,16.186L541.182,294.04Q523.968,298.3,506.682,302.592Z" transform="translate(-46.707 -137.115)" fill="url(#radial-gradient-3)"/>
      <path id="Path_55" data-name="Path 55" d="M1203.794,185.651s-25.77-24.6-84.345-14.056S384.917,352,384.917,352L343.1,369.667A17.837,17.837,0,0,0,332.2,386.1h0a17.8,17.8,0,0,0,12.479,17.015c31.68,9.932,121.9,33.09,249.952,23.389a225.169,225.169,0,0,0,39.323-6.587l534.7-138.2s63.931-20.608,74.729-50.554C1254.6,200.039,1203.794,185.651,1203.794,185.651Z" transform="translate(-290.557 -95.234)" fill="url(#radial-gradient-4)"/>
      <path id="Path_56" data-name="Path 56" d="M620.161,388.135a233.317,233.317,0,0,1-40.718,6.817c-118.453,8.975-205.607-9.194-246.258-20.508a17.8,17.8,0,0,1,6.066-4.259l41.416-18.194s675.2-170.179,734.53-180.409c35.519-6.392,59.363-1,72.2,6.613,8.494,4.08,12.549,7.974,12.549,7.974s28.085,7.964,37.873,24.847c-22.912,20.761-63.942,34-63.942,34Z" transform="translate(-286.71 -95.753)" fill="url(#radial-gradient-5)"/>
      <path id="Path_57" data-name="Path 57" d="M620.161,388.135a233.317,233.317,0,0,1-40.718,6.817c-118.453,8.975-205.607-9.194-246.258-20.508a17.8,17.8,0,0,1,6.066-4.259l41.416-18.194s675.2-170.179,734.53-180.409c35.519-6.392,59.363-1,72.2,6.613,8.494,4.08,12.549,7.974,12.549,7.974s28.085,7.964,37.873,24.847c-22.912,20.761-63.942,34-63.942,34Z" transform="translate(-286.71 -95.753)" fill="url(#radial-gradient-5)"/>
      <path id="Path_58" data-name="Path 58" d="M393.795,182.189l.07-.06c9.227,6.836,13.234,12.379,13.234,12.379l.142.071c-.677,1.866-3.793,7.29-17.594,12.25A94.183,94.183,0,0,0,372.781,190.8C380.922,188.765,388.347,185.991,393.795,182.189Zm-31.81,10.846a63.657,63.657,0,0,1,14.054,17.611c-5.063,1.111-10.935,2.127-17.757,2.981L351.59,194.5C355.037,194.109,358.521,193.621,361.985,193.035Z" transform="translate(481.545 -63.833)" fill="url(#radial-gradient-7)"/>
      <path id="Path_59" data-name="Path 59" d="M1197.6,191.656c-13.588-8.053-24.9-10.512-62.491-3.746-62.788,10.829-777.345,190.927-777.345,190.927l-2.418,1.063c-8.165-1.9-15.349-3.754-21.466-5.456a17.812,17.812,0,0,1,6.065-4.259l41.414-18.194s675.2-170.179,734.531-180.409c35.517-6.392,59.362-1,72.2,6.613,8.494,4.08,12.551,7.974,12.551,7.974s24.223,6.888,35.51,21.4C1226.451,199.6,1208.862,192.262,1197.6,191.656Z" transform="translate(-287.407 -95.753)" fill="url(#radial-gradient-8)"/>
      <path id="Path_60" data-name="Path 60" d="M344.687,363.788c31.683,9.931,121.9,33.089,249.955,23.385a225.4,225.4,0,0,0,39.323-6.583l534.7-138.2s63.933-20.612,74.729-50.554a26.341,26.341,0,0,0,1.545-7.484,25.186,25.186,0,0,1-1.545,10.121c-10.8,29.949-74.729,50.557-74.729,50.557l-534.7,138.2a225.1,225.1,0,0,1-39.323,6.586c-128.051,9.7-218.272-13.456-249.955-23.388A17.8,17.8,0,0,1,332.21,349.41c0-.464.064-.914.1-1.371A17.758,17.758,0,0,0,344.687,363.788Z" transform="translate(-290.566 -58.54)" opacity="0.43" fill="url(#radial-gradient-9)"/>
      <path id="Path_61" data-name="Path 61" d="M884.007,211.847S676.771,413,593.555,470.345c-65.665,45.26-136.237,63.907-163.079,69.759a3.462,3.462,0,0,1-3.16-5.849l220.77-257.582S745.979,196.389,884.007,211.847Z" transform="translate(-248.117 2.364)" fill="url(#radial-gradient-10)"/>
      <path id="Path_62" data-name="Path 62" d="M656.667,263.267s34.2-28.03,90.654-47.778C715.61,252.183,590.183,396.1,536.265,439.762a352.886,352.886,0,0,1-67.087,42.259Z" transform="translate(-256.703 15.771)" fill="url(#radial-gradient-11)"/>
      <g id="Group_39" data-name="Group 39" transform="translate(0 104.096)">
        <path id="Path_63" data-name="Path 63" d="M534.712,210.128h0v0Z" transform="translate(-266.004 -101.118)" fill="url(#radial-gradient-12)"/>
        <path id="Path_64" data-name="Path 64" d="M612.843,337.669l16.716-7.059s72.808-18.3,172.708-43.256c-8.581,1.927-50.735,8.51-110.752-30.174-63.539-40.94-72.564-88.532-147.263-77.676a10.655,10.655,0,0,0-7.783,15.576l76.374,142.589Z" transform="translate(-535.198 -177.935)" fill="url(#radial-gradient-13)"/>
        <g id="Group_38" data-name="Group 38">
          <g id="Group_37" data-name="Group 37" clip-path="url(#clip-path)">
            <path id="Path_65" data-name="Path 65" d="M662.138,190.122a60.834,60.834,0,1,1-78.025,36.241A60.9,60.9,0,0,1,662.138,190.122ZM588.115,225.95l11.834,4.328c11.536-29.642,33.729-37.827,48.16-39.865A57.33,57.33,0,0,0,588.115,225.95Zm73.965-30.536-18.573,50.792,16.81,6.146C672.46,218.019,665.659,201.153,662.079,195.414Zm-19.787,54.1-18.572,50.788c6.447-2.076,22.521-10.581,35.388-44.641ZM620.41,299.1,638.979,248.3l-16.806-6.146C610.028,276.5,616.83,293.364,620.41,299.1Zm19.786-54.1,18.583-50.822c-6.409,2-22.444,10.375-35.4,44.676Zm23.434,8.57,16.81,6.145c10.659-31.172-3.093-51.128-12.5-60.391C671.379,208.474,673.577,225.468,663.63,253.564Zm-1.209,3.312c-10.522,27.881-23.165,39.451-31.7,44.232,13.159-1.012,36.539-7.389,48.5-38.086Zm-43.565-15.929L602.048,234.8c-10.664,31.172,3.093,51.126,12.5,60.391C611.111,286.036,608.914,269.041,618.855,240.947Zm1.212-3.311C630.49,210.01,643,198.4,651.525,193.538c-13.217,1.2-36.5,7.818-48.265,37.951Zm52.6-38.244c9.713,10.867,21.388,31.437,11.084,61.53l11.834,4.328A57.337,57.337,0,0,0,672.668,199.392Zm21.707,69.169-11.829-4.327C671,293.874,648.81,302.06,634.38,304.1A57.332,57.332,0,0,0,694.375,268.561Zm-84.551,26.558c-9.713-10.866-21.393-31.438-11.087-61.531L586.9,229.262A57.335,57.335,0,0,0,609.825,295.118Z" transform="translate(-588.107 -157.692)" fill="url(#radial-gradient-14)"/>
          </g>
        </g>
      </g>
      <path id="Path_67" data-name="Path 67" d="M744.992,216.693l7.4-1.712a4.644,4.644,0,0,1,5.574,3.477l3.136,13.534a4.648,4.648,0,0,1-3.479,5.577l-7.4,1.714a4.647,4.647,0,0,1-5.573-3.477l-3.136-13.535A4.648,4.648,0,0,1,744.992,216.693ZM695.361,228.7l7.4-1.713a4.65,4.65,0,0,1,5.577,3.477L711.469,244a4.647,4.647,0,0,1-3.477,5.576l-7.4,1.715a4.643,4.643,0,0,1-5.573-3.478l-3.138-13.534A4.645,4.645,0,0,1,695.361,228.7Zm-49.635,12.01,7.4-1.714a4.649,4.649,0,0,1,5.577,3.478l3.131,13.535a4.64,4.64,0,0,1-3.478,5.576l-7.4,1.712a4.646,4.646,0,0,1-5.576-3.477l-3.133-13.534A4.648,4.648,0,0,1,645.727,240.714ZM596.1,252.725l7.4-1.714a4.644,4.644,0,0,1,5.572,3.481l3.137,13.532a4.65,4.65,0,0,1-3.479,5.576l-7.4,1.714a4.645,4.645,0,0,1-5.575-3.478L592.618,258.3A4.648,4.648,0,0,1,596.1,252.725Zm-49.633,12.01,7.4-1.713a4.649,4.649,0,0,1,5.577,3.481l3.13,13.53a4.646,4.646,0,0,1-3.477,5.577l-7.4,1.713a4.647,4.647,0,0,1-5.577-3.476l-3.135-13.536A4.647,4.647,0,0,1,546.463,264.735ZM496.83,276.75l7.4-1.718a4.649,4.649,0,0,1,5.578,3.481l3.132,13.532a4.642,4.642,0,0,1-3.479,5.576l-7.4,1.714a4.65,4.65,0,0,1-5.578-3.479l-3.133-13.534A4.646,4.646,0,0,1,496.83,276.75ZM447.2,288.759l7.4-1.716a4.644,4.644,0,0,1,5.572,3.48l3.136,13.535a4.643,4.643,0,0,1-3.477,5.574l-7.4,1.713a4.646,4.646,0,0,1-5.576-3.478l-3.134-13.534A4.647,4.647,0,0,1,447.2,288.759Zm-49.635,12.012,7.4-1.714a4.646,4.646,0,0,1,5.579,3.477l3.132,13.535a4.644,4.644,0,0,1-3.479,5.573l-7.4,1.713a4.641,4.641,0,0,1-5.57-3.478l-3.139-13.534A4.646,4.646,0,0,1,397.561,300.771Zm-49.629,12.01,7.4-1.713a4.651,4.651,0,0,1,5.578,3.477l3.134,13.534a4.648,4.648,0,0,1-3.481,5.575l-7.4,1.713a4.649,4.649,0,0,1-5.579-3.477l-3.131-13.534A4.646,4.646,0,0,1,347.932,312.781ZM842.484,192.74c13.692-2.838,40.41-9.61,51.53-21.024l.049-.054c8.084,3.893,11.977,7.561,11.977,7.561l.122.037c-.461,2.857-5.563,16.437-60.332,28.629a7.757,7.757,0,1,1-3.346-15.148Z" transform="translate(7.198 -88.805)" fill="url(#linear-gradient)"/>
    </g>
    <path id="Path_68" data-name="Path 68" d="M746.187,234.757s-88.109,93.66-193.162,110.973l105.2-104.009S691.753,225.566,746.187,234.757Z" transform="translate(-539.483 54.998)" fill="url(#radial-gradient-15)"/>
    <path id="Path_69" data-name="Path 69" d="M742.51,232.6c1.237.19,2.4.332,3.677.549,0,0-88.109,93.659-193.162,110.974l1.928-1.674C656.527,323.048,740.829,234.373,742.51,232.6Z" transform="translate(-539.483 56.604)" fill="url(#radial-gradient-16)"/>
  </g>
  <path id="Path_70" data-name="Path 70" d="M571.043,199.425c3.051,2.17,6.192,4.335,9.52,6.478,2.777,1.791,5.5,3.454,8.2,5.056L553.34,221.2Zm24.231,15.264c19.7,10.881,37.1,16.853,51.548,19.962l-98.483,22.582Z" transform="translate(-424.245 -22.559)" fill="url(#radial-gradient-17)"/>
</svg>
